<svg width="1252" height="696" viewBox="0 0 1252 696" fill="none" xmlns="http://www.w3.org/2000/svg">
<path d="M514.307 345.854C525.635 345.854 534.535 336.746 534.535 325.154C534.535 313.562 525.635 304.455 514.307 304.455C502.979 304.455 494.078 313.562 494.078 325.154C494.078 336.746 502.979 345.854 514.307 345.854Z" fill="black"/>
<path d="M756.889 261.55C768.217 261.55 777.117 252.442 777.117 240.851C777.117 229.259 768.217 220.151 756.889 220.151C745.561 220.151 736.66 229.259 736.66 240.851C736.66 252.442 745.561 261.55 756.889 261.55Z" fill="black"/>
<path d="M715.698 219.399C726.649 219.399 735.331 210.888 735.897 199.85L735.927 198.7V198.7C735.927 187.108 727.026 178 715.698 178C704.37 178 695.47 187.108 695.47 198.7C695.47 210.291 704.37 219.399 715.698 219.399Z" fill="black"/>
<path d="M674.49 219.399C685.44 219.399 694.123 210.888 694.689 199.85L694.719 198.7V198.7C694.719 187.108 685.818 178 674.49 178C663.162 178 654.262 187.108 654.262 198.7C654.262 210.291 663.162 219.399 674.49 219.399Z" fill="black"/>
<path d="M676.173 261.55C687.123 261.55 695.805 253.039 696.372 242.001L696.401 240.851V240.851C696.401 229.259 687.501 220.151 676.173 220.151C664.845 220.151 655.944 229.259 655.944 240.851C655.944 252.442 664.845 261.55 676.173 261.55Z" fill="black"/>
<path d="M514.776 261.55C525.727 261.55 534.409 253.039 534.975 242.001L535.005 240.851V240.851C535.005 229.259 526.104 220.151 514.776 220.151C503.448 220.151 494.548 229.259 494.548 240.851C494.548 252.442 503.448 261.55 514.776 261.55Z" fill="black"/>
<path d="M716.53 261.55C727.858 261.55 736.759 252.442 736.759 240.851C736.759 229.259 727.858 220.151 716.53 220.151C705.202 220.151 696.302 229.259 696.302 240.851C696.302 252.442 705.202 261.55 716.53 261.55Z" fill="black"/>
<path d="M555.116 261.55C566.066 261.55 574.749 253.039 575.315 242.001L575.345 240.851V240.851C575.345 229.259 566.444 220.151 555.116 220.151C543.788 220.151 534.888 229.259 534.888 240.851C534.888 252.442 543.788 261.55 555.116 261.55Z" fill="black"/>
<path d="M595.475 261.55C606.425 261.55 615.107 253.039 615.674 242.001L615.703 240.851V240.851C615.703 229.259 606.802 220.151 595.475 220.151C584.147 220.151 575.246 229.259 575.246 240.851C575.246 252.442 584.147 261.55 595.475 261.55Z" fill="black"/>
<path d="M635.833 261.55C646.783 261.55 655.465 253.039 656.032 242.001L656.061 240.851V240.851C656.061 229.259 647.161 220.151 635.833 220.151C624.505 220.151 615.604 229.259 615.604 240.851C615.604 252.442 624.505 261.55 635.833 261.55Z" fill="black"/>
<path d="M676.462 303.702C687.412 303.702 696.094 295.192 696.661 284.154L696.69 283.003V283.003C696.69 271.411 687.79 262.303 676.462 262.303C665.134 262.303 656.233 271.411 656.233 283.003C656.233 294.595 665.134 303.702 676.462 303.702Z" fill="black"/>
<path d="M757.54 303.702C768.868 303.702 777.768 294.595 777.768 283.003C777.768 271.411 768.868 262.303 757.54 262.303C746.212 262.303 737.312 271.411 737.312 283.003C737.312 294.595 746.212 303.702 757.54 303.702Z" fill="black"/>
<path d="M798.079 303.702C809.407 303.702 818.307 294.595 818.307 283.003C818.307 271.411 809.407 262.303 798.079 262.303C786.751 262.303 777.851 271.411 777.851 283.003C777.851 294.595 786.751 303.702 798.079 303.702Z" fill="black"/>
<path d="M433.228 303.702C444.556 303.702 453.457 294.595 453.457 283.003C453.457 271.411 444.556 262.303 433.228 262.303C421.901 262.303 413 271.411 413 283.003C413 294.595 421.901 303.702 433.228 303.702Z" fill="black"/>
<path d="M554.846 303.702C566.174 303.702 575.074 294.595 575.074 283.003C575.074 271.411 566.174 262.303 554.846 262.303C543.518 262.303 534.617 271.411 534.617 283.003C534.617 294.595 543.518 303.702 554.846 303.702Z" fill="black"/>
<path d="M514.307 303.702C525.257 303.702 533.939 295.192 534.506 284.154L534.535 283.003V283.003C534.535 271.411 525.635 262.303 514.307 262.303C502.979 262.303 494.078 271.411 494.078 283.003C494.078 294.595 502.979 303.702 514.307 303.702Z" fill="black"/>
<path d="M473.768 303.702C484.718 303.702 493.4 295.192 493.967 284.154L493.996 283.003V283.003C493.996 271.411 485.095 262.303 473.768 262.303C462.44 262.303 453.539 271.411 453.539 283.003C453.539 294.595 462.44 303.702 473.768 303.702Z" fill="black"/>
<path d="M717.001 303.702C727.951 303.702 736.633 295.192 737.2 284.154L737.229 283.003V283.003C737.229 271.411 728.329 262.303 717.001 262.303C705.673 262.303 696.772 271.411 696.772 283.003C696.772 294.595 705.673 303.702 717.001 303.702Z" fill="black"/>
<path d="M757.54 345.854C768.868 345.854 777.768 336.746 777.768 325.154C777.768 313.562 768.868 304.455 757.54 304.455C746.212 304.455 737.312 313.562 737.312 325.154C737.312 336.746 746.212 345.854 757.54 345.854Z" fill="black"/>
<path d="M798.079 345.854C809.407 345.854 818.307 336.746 818.307 325.154C818.307 313.562 809.407 304.455 798.079 304.455C786.751 304.455 777.851 313.562 777.851 325.154C777.851 336.746 786.751 345.854 798.079 345.854Z" fill="black"/>
<path d="M433.228 345.854C444.556 345.854 453.457 336.746 453.457 325.154C453.457 313.562 444.556 304.455 433.228 304.455C421.901 304.455 413 313.562 413 325.154C413 336.746 421.901 345.854 433.228 345.854Z" fill="black"/>
<path d="M798.079 388.006C809.407 388.006 818.307 378.898 818.307 367.306C818.307 355.715 809.407 346.607 798.079 346.607C786.751 346.607 777.851 355.715 777.851 367.306C777.851 378.898 786.751 388.006 798.079 388.006Z" fill="black"/>
<path d="M433.228 388.006C444.556 388.006 453.457 378.898 453.457 367.306C453.457 355.715 444.556 346.607 433.228 346.607C421.901 346.607 413 355.715 413 367.306C413 378.898 421.901 388.006 433.228 388.006Z" fill="black"/>
<path d="M717.001 345.854C727.951 345.854 736.633 337.343 737.2 326.305L737.229 325.154V325.154C737.229 313.562 728.329 304.455 717.001 304.455C705.673 304.455 696.772 313.562 696.772 325.154C696.772 336.746 705.673 345.854 717.001 345.854Z" fill="black"/>
<path d="M473.768 345.854C484.718 345.854 493.4 337.343 493.967 326.305L493.996 325.154V325.154C493.996 313.562 485.095 304.455 473.768 304.455C462.44 304.455 453.539 313.562 453.539 325.154C453.539 336.746 462.44 345.854 473.768 345.854Z" fill="black"/>
<path d="M757.54 388.006C768.868 388.006 777.768 378.898 777.768 367.306C777.768 355.715 768.868 346.607 757.54 346.607C746.212 346.607 737.312 355.715 737.312 367.306C737.312 378.898 746.212 388.006 757.54 388.006Z" fill="black"/>
<path d="M514.307 388.006C525.635 388.006 534.535 378.898 534.535 367.306C534.535 355.715 525.635 346.607 514.307 346.607C502.979 346.607 494.078 355.715 494.078 367.306C494.078 378.898 502.979 388.006 514.307 388.006Z" fill="black"/>
<path d="M473.768 388.006C484.718 388.006 493.4 379.495 493.967 368.457L493.996 367.306V367.306C493.996 355.715 485.095 346.607 473.768 346.607C462.44 346.607 453.539 355.715 453.539 367.306C453.539 378.898 462.44 388.006 473.768 388.006Z" fill="black"/>
<path d="M717.001 388.006C727.951 388.006 736.633 379.495 737.2 368.457L737.229 367.306V367.306C737.229 355.715 728.329 346.607 717.001 346.607C705.673 346.607 696.772 355.715 696.772 367.306C696.772 378.898 705.673 388.006 717.001 388.006Z" fill="black"/>
<path d="M676.173 430.157C687.123 430.157 695.805 421.646 696.372 410.608L696.401 409.458V409.458C696.401 397.866 687.501 388.758 676.173 388.758C664.845 388.758 655.944 397.866 655.944 409.458C655.944 421.049 664.845 430.157 676.173 430.157Z" fill="black"/>
<path d="M635.833 430.157C646.783 430.157 655.465 421.646 656.032 410.608L656.061 409.458V409.458C656.061 397.866 647.161 388.758 635.833 388.758C624.505 388.758 615.604 397.866 615.604 409.458C615.604 421.049 624.505 430.157 635.833 430.157Z" fill="black"/>
<path d="M595.475 430.157C606.425 430.157 615.107 421.646 615.674 410.608L615.703 409.458V409.458C615.703 397.866 606.802 388.758 595.475 388.758C584.147 388.758 575.246 397.866 575.246 409.458C575.246 421.049 584.147 430.157 595.475 430.157Z" fill="black"/>
<path d="M676.462 388.006C687.412 388.006 696.094 379.495 696.661 368.457L696.69 367.306V367.306C696.69 355.715 687.79 346.607 676.462 346.607C665.134 346.607 656.233 355.715 656.233 367.306C656.233 378.898 665.134 388.006 676.462 388.006Z" fill="black"/>
<path d="M474.419 430.157C485.369 430.157 494.051 421.646 494.618 410.608L494.647 409.458V409.458C494.647 397.866 485.747 388.758 474.419 388.758C463.091 388.758 454.19 397.866 454.19 409.458C454.19 421.049 463.091 430.157 474.419 430.157Z" fill="black"/>
<path d="M514.776 430.157C526.104 430.157 535.005 421.049 535.005 409.458C535.005 397.866 526.104 388.758 514.776 388.758C503.448 388.758 494.548 397.866 494.548 409.458C494.548 421.049 503.448 430.157 514.776 430.157Z" fill="black"/>
<path d="M756.889 430.157C768.217 430.157 777.117 421.049 777.117 409.458C777.117 397.866 768.217 388.758 756.889 388.758C745.561 388.758 736.66 397.866 736.66 409.458C736.66 421.049 745.561 430.157 756.889 430.157Z" fill="black"/>
<path d="M716.53 430.157C727.481 430.157 736.163 421.646 736.729 410.608L736.759 409.458V409.458C736.759 397.866 727.858 388.758 716.53 388.758C705.202 388.758 696.302 397.866 696.302 409.458C696.302 421.049 705.202 430.157 716.53 430.157Z" fill="black"/>
<path d="M715.698 472.309C727.026 472.309 735.927 463.202 735.927 451.61C735.927 440.018 727.026 430.91 715.698 430.91C704.37 430.91 695.47 440.018 695.47 451.61C695.47 463.202 704.37 472.309 715.698 472.309Z" fill="black"/>
<path d="M675.685 472.309C686.635 472.309 695.317 463.799 695.884 452.761L695.913 451.61V451.61C695.913 440.018 687.012 430.91 675.685 430.91C664.357 430.91 655.456 440.018 655.456 451.61C655.456 463.202 664.357 472.309 675.685 472.309Z" fill="black"/>
<path d="M635.923 303.702C646.873 303.702 655.555 295.192 656.122 284.154L656.151 283.003V283.003C656.151 271.411 647.251 262.303 635.923 262.303C624.595 262.303 615.694 271.411 615.694 283.003C615.694 294.595 624.595 303.702 635.923 303.702Z" fill="black"/>
<path d="M555.623 472.309C566.573 472.309 575.255 463.799 575.822 452.761L575.851 451.61V451.61C575.851 440.018 566.951 430.91 555.623 430.91C544.295 430.91 535.395 440.018 535.395 451.61C535.395 463.202 544.295 472.309 555.623 472.309Z" fill="black"/>
<path d="M595.638 472.309C606.588 472.309 615.27 463.799 615.837 452.761L615.866 451.61V451.61C615.866 440.018 606.966 430.91 595.638 430.91C584.31 430.91 575.409 440.018 575.409 451.61C575.409 463.202 584.31 472.309 595.638 472.309Z" fill="black"/>
<path d="M635.651 472.309C646.602 472.309 655.284 463.799 655.85 452.761L655.88 451.61V451.61C655.88 440.018 646.979 430.91 635.651 430.91C624.323 430.91 615.423 440.018 615.423 451.61C615.423 463.202 624.323 472.309 635.651 472.309Z" fill="black"/>
<path d="M515.608 472.309C526.559 472.309 535.241 463.799 535.807 452.761L535.837 451.61V451.61C535.837 440.018 526.936 430.91 515.608 430.91C504.28 430.91 495.38 440.018 495.38 451.61C495.38 463.202 504.28 472.309 515.608 472.309Z" fill="black"/>
<path d="M675.974 515.214C687.301 515.214 696.202 506.106 696.202 494.514C696.202 482.922 687.301 473.815 675.974 473.815C664.646 473.815 655.745 482.922 655.745 494.514C655.745 506.106 664.646 515.214 675.974 515.214Z" fill="black"/>
<path d="M635.507 515.214C646.457 515.214 655.139 506.703 655.706 495.665L655.735 494.514C655.735 482.922 646.835 473.815 635.507 473.815C624.179 473.815 615.278 482.922 615.278 494.514C615.278 506.106 624.179 515.214 635.507 515.214Z" fill="black"/>
<path d="M595.059 515.214C606.009 515.214 614.691 506.703 615.258 495.665L615.287 494.514V494.514C615.287 482.922 606.386 473.815 595.059 473.815C583.731 473.815 574.83 482.922 574.83 494.514C574.83 506.106 583.731 515.214 595.059 515.214Z" fill="black"/>
<path d="M676.462 345.854C687.412 345.854 696.094 337.343 696.661 326.305L696.69 325.154V325.154C696.69 313.562 687.79 304.455 676.462 304.455C665.134 304.455 656.233 313.562 656.233 325.154C656.233 336.746 665.134 345.854 676.462 345.854Z" fill="black"/>
<path d="M635.923 345.854C646.873 345.854 655.555 337.343 656.122 326.305L656.151 325.154V325.154C656.151 313.562 647.251 304.455 635.923 304.455C624.595 304.455 615.694 313.562 615.694 325.154C615.694 336.746 624.595 345.854 635.923 345.854Z" fill="black"/>
<path d="M595.384 345.854C606.334 345.854 615.016 337.343 615.583 326.305L615.612 325.154V325.154C615.612 313.562 606.712 304.455 595.384 304.455C584.056 304.455 575.155 313.562 575.155 325.154C575.155 336.746 584.056 345.854 595.384 345.854Z" fill="black"/>
<path d="M554.592 515.214C565.542 515.214 574.224 506.703 574.791 495.665L574.82 494.514V494.514C574.82 482.922 565.92 473.815 554.592 473.815C543.264 473.815 534.363 482.922 534.363 494.514C534.363 506.106 543.264 515.214 554.592 515.214Z" fill="black"/>
<path d="M554.846 345.854C565.796 345.854 574.478 337.343 575.045 326.305L575.074 325.154V325.154C575.074 313.562 566.174 304.455 554.846 304.455C543.518 304.455 534.617 313.562 534.617 325.154C534.617 336.746 543.518 345.854 554.846 345.854Z" fill="black"/>
<path d="M595.384 303.702C606.334 303.702 615.016 295.192 615.583 284.154L615.612 283.003V283.003C615.612 271.411 606.712 262.303 595.384 262.303C584.056 262.303 575.155 271.411 575.155 283.003C575.155 294.595 584.056 303.702 595.384 303.702Z" fill="black"/>
<path d="M474.419 261.55C485.369 261.55 494.051 253.039 494.618 242.001L494.647 240.851V240.851C494.647 229.259 485.747 220.151 474.419 220.151C463.091 220.151 454.19 229.259 454.19 240.851C454.19 252.442 463.091 261.55 474.419 261.55Z" fill="black"/>
<path d="M555.116 430.157C566.444 430.157 575.345 421.049 575.345 409.458C575.345 397.866 566.444 388.758 555.116 388.758C543.788 388.758 534.888 397.866 534.888 409.458C534.888 421.049 543.788 430.157 555.116 430.157Z" fill="black"/>
<path d="M554.846 388.006C566.174 388.006 575.074 378.898 575.074 367.306C575.074 355.715 566.174 346.607 554.846 346.607C543.518 346.607 534.617 355.715 534.617 367.306C534.617 378.898 543.518 388.006 554.846 388.006Z" fill="black"/>
<path d="M595.384 388.006C606.712 388.006 615.612 378.898 615.612 367.306C615.612 355.715 606.712 346.607 595.384 346.607C584.056 346.607 575.155 355.715 575.155 367.306C575.155 378.898 584.056 388.006 595.384 388.006Z" fill="black"/>
<path d="M635.923 388.006C647.251 388.006 656.151 378.898 656.151 367.306C656.151 355.715 647.251 346.607 635.923 346.607C624.595 346.607 615.694 355.715 615.694 367.306C615.694 378.898 624.595 388.006 635.923 388.006Z" fill="black"/>
<path d="M515.608 219.399C526.559 219.399 535.241 210.888 535.807 199.85L535.837 198.7V198.7C535.837 187.108 526.936 178 515.608 178C504.28 178 495.38 187.108 495.38 198.7C495.38 210.291 504.28 219.399 515.608 219.399Z" fill="black"/>
<path d="M614.18 555.86C625.508 555.86 634.408 546.752 634.408 535.16C634.408 523.569 625.508 514.461 614.18 514.461C602.852 514.461 593.951 523.569 593.951 535.16C593.951 546.752 602.852 555.86 614.18 555.86Z" fill="black"/>
<path d="M556.799 219.399C567.749 219.399 576.431 210.888 576.998 199.85L577.027 198.7V198.7C577.027 187.108 568.127 178 556.799 178C545.471 178 536.57 187.108 536.57 198.7C536.57 210.291 545.471 219.399 556.799 219.399Z" fill="black"/>
<path d="M789.61 567C816.68 567 839.041 544.117 839.041 515.815C839.041 487.513 817.268 465.233 789.61 465.233C761.364 465.233 739.591 487.513 739.591 515.815C739.591 544.117 761.952 567 789.61 567Z" fill="#F000B8"/>
<path d="M1080.97 215.688C1070.38 215.688 1062.06 207.369 1062.06 196.781C1062.06 186.194 1070.38 177.875 1080.97 177.875C1091.56 177.875 1099.88 186.194 1099.88 196.781C1099.88 207.369 1091.56 215.688 1080.97 215.688ZM1118.78 215.688C1108.19 215.688 1099.88 207.369 1099.88 196.781C1099.88 186.194 1108.19 177.875 1118.78 177.875C1129.37 177.875 1137.69 186.194 1137.69 196.781C1137.69 207.369 1129.37 215.688 1118.78 215.688ZM1080.97 253.5C1070.38 253.5 1062.06 245.181 1062.06 234.594C1062.06 224.006 1070.38 215.688 1080.97 215.688C1091.56 215.688 1099.88 224.006 1099.88 234.594C1099.88 245.181 1091.56 253.5 1080.97 253.5ZM1043.16 253.5C1032.57 253.5 1024.25 245.181 1024.25 234.594C1024.25 224.006 1032.57 215.688 1043.16 215.688C1053.74 215.688 1062.06 224.006 1062.06 234.594C1062.06 245.181 1053.74 253.5 1043.16 253.5ZM1118.78 253.5C1108.19 253.5 1099.88 245.181 1099.88 234.594C1099.88 224.006 1108.19 215.688 1118.78 215.688C1129.37 215.688 1137.69 224.006 1137.69 234.594C1137.69 245.181 1129.37 253.5 1118.78 253.5ZM1043.16 291.312C1032.57 291.312 1024.25 282.994 1024.25 272.406C1024.25 261.819 1032.57 253.5 1043.16 253.5C1053.74 253.5 1062.06 261.819 1062.06 272.406C1062.06 282.994 1053.74 291.312 1043.16 291.312ZM1005.34 291.312C994.756 291.312 986.438 282.994 986.438 272.406C986.438 261.819 994.756 253.5 1005.34 253.5C1015.93 253.5 1024.25 261.819 1024.25 272.406C1024.25 282.994 1015.93 291.312 1005.34 291.312ZM1080.97 291.312C1070.38 291.312 1062.06 282.994 1062.06 272.406C1062.06 261.819 1070.38 253.5 1080.97 253.5C1091.56 253.5 1099.88 261.819 1099.88 272.406C1099.88 282.994 1091.56 291.312 1080.97 291.312ZM1118.78 291.312C1108.19 291.312 1099.88 282.994 1099.88 272.406C1099.88 261.819 1108.19 253.5 1118.78 253.5C1129.37 253.5 1137.69 261.819 1137.69 272.406C1137.69 282.994 1129.37 291.312 1118.78 291.312ZM1005.34 329.125C994.756 329.125 986.438 320.806 986.438 310.219C986.438 299.631 994.756 291.312 1005.34 291.312C1015.93 291.312 1024.25 299.631 1024.25 310.219C1024.25 320.806 1015.93 329.125 1005.34 329.125ZM967.531 329.125C956.944 329.125 948.625 320.806 948.625 310.219C948.625 299.631 956.944 291.312 967.531 291.312C978.119 291.312 986.438 299.631 986.438 310.219C986.438 320.806 978.119 329.125 967.531 329.125ZM1080.97 329.125C1070.38 329.125 1062.06 320.806 1062.06 310.219C1062.06 299.631 1070.38 291.312 1080.97 291.312C1091.56 291.312 1099.88 299.631 1099.88 310.219C1099.88 320.806 1091.56 329.125 1080.97 329.125ZM1118.78 329.125C1108.19 329.125 1099.88 320.806 1099.88 310.219C1099.88 299.631 1108.19 291.312 1118.78 291.312C1129.37 291.312 1137.69 299.631 1137.69 310.219C1137.69 320.806 1129.37 329.125 1118.78 329.125ZM1080.97 366.938C1070.38 366.938 1062.06 358.619 1062.06 348.031C1062.06 337.444 1070.38 329.125 1080.97 329.125C1091.56 329.125 1099.88 337.444 1099.88 348.031C1099.88 358.619 1091.56 366.938 1080.97 366.938ZM967.531 366.938C956.944 366.938 948.625 358.619 948.625 348.031C948.625 337.444 956.944 329.125 967.531 329.125C978.119 329.125 986.438 337.444 986.438 348.031C986.438 358.619 978.119 366.938 967.531 366.938ZM929.719 366.938C919.131 366.938 910.812 358.619 910.812 348.031C910.812 337.444 919.131 329.125 929.719 329.125C940.306 329.125 948.625 337.444 948.625 348.031C948.625 358.619 940.306 366.938 929.719 366.938ZM1118.78 366.938C1108.19 366.938 1099.88 358.619 1099.88 348.031C1099.88 337.444 1108.19 329.125 1118.78 329.125C1129.37 329.125 1137.69 337.444 1137.69 348.031C1137.69 358.619 1129.37 366.938 1118.78 366.938ZM1118.78 404.75C1108.19 404.75 1099.88 396.431 1099.88 385.844C1099.88 375.256 1108.19 366.938 1118.78 366.938C1129.37 366.938 1137.69 375.256 1137.69 385.844C1137.69 396.431 1129.37 404.75 1118.78 404.75ZM1156.59 404.75C1146.01 404.75 1137.69 396.431 1137.69 385.844C1137.69 375.256 1146.01 366.938 1156.59 366.938C1167.18 366.938 1175.5 375.256 1175.5 385.844C1175.5 396.431 1167.18 404.75 1156.59 404.75ZM1043.16 404.75C1032.57 404.75 1024.25 396.431 1024.25 385.844C1024.25 375.256 1032.57 366.938 1043.16 366.938C1053.74 366.938 1062.06 375.256 1062.06 385.844C1062.06 396.431 1053.74 404.75 1043.16 404.75ZM929.719 404.75C919.131 404.75 910.812 396.431 910.812 385.844C910.812 375.256 919.131 366.938 929.719 366.938C940.306 366.938 948.625 375.256 948.625 385.844C948.625 396.431 940.306 404.75 929.719 404.75ZM967.531 404.75C956.944 404.75 948.625 396.431 948.625 385.844C948.625 375.256 956.944 366.938 967.531 366.938C978.119 366.938 986.438 375.256 986.438 385.844C986.438 396.431 978.119 404.75 967.531 404.75ZM1005.34 404.75C994.756 404.75 986.438 396.431 986.438 385.844C986.438 375.256 994.756 366.938 1005.34 366.938C1015.93 366.938 1024.25 375.256 1024.25 385.844C1024.25 396.431 1015.93 404.75 1005.34 404.75ZM1194.41 404.75C1183.82 404.75 1175.5 396.431 1175.5 385.844C1175.5 375.256 1183.82 366.938 1194.41 366.938C1204.99 366.938 1213.31 375.256 1213.31 385.844C1213.31 396.431 1204.99 404.75 1194.41 404.75ZM1080.97 404.75C1070.38 404.75 1062.06 396.431 1062.06 385.844C1062.06 375.256 1070.38 366.938 1080.97 366.938C1091.56 366.938 1099.88 375.256 1099.88 385.844C1099.88 396.431 1091.56 404.75 1080.97 404.75ZM891.906 404.75C881.319 404.75 873 396.431 873 385.844C873 375.256 881.319 366.938 891.906 366.938C902.494 366.938 910.812 375.256 910.812 385.844C910.812 396.431 902.494 404.75 891.906 404.75ZM1118.78 442.562C1108.19 442.562 1099.88 434.244 1099.88 423.656C1099.88 413.069 1108.19 404.75 1118.78 404.75C1129.37 404.75 1137.69 413.069 1137.69 423.656C1137.69 434.244 1129.37 442.562 1118.78 442.562ZM1080.97 442.562C1070.38 442.562 1062.06 434.244 1062.06 423.656C1062.06 413.069 1070.38 404.75 1080.97 404.75C1091.56 404.75 1099.88 413.069 1099.88 423.656C1099.88 434.244 1091.56 442.562 1080.97 442.562ZM929.719 442.562C919.131 442.562 910.812 434.244 910.812 423.656C910.812 413.069 919.131 404.75 929.719 404.75C940.306 404.75 948.625 413.069 948.625 423.656C948.625 434.244 940.306 442.562 929.719 442.562ZM967.531 442.562C956.944 442.562 948.625 434.244 948.625 423.656C948.625 413.069 956.944 404.75 967.531 404.75C978.119 404.75 986.438 413.069 986.438 423.656C986.438 434.244 978.119 442.562 967.531 442.562ZM1005.34 442.562C994.756 442.562 986.438 434.244 986.438 423.656C986.438 413.069 994.756 404.75 1005.34 404.75C1015.93 404.75 1024.25 413.069 1024.25 423.656C1024.25 434.244 1015.93 442.562 1005.34 442.562ZM1156.59 442.562C1146.01 442.562 1137.69 434.244 1137.69 423.656C1137.69 413.069 1146.01 404.75 1156.59 404.75C1167.18 404.75 1175.5 413.069 1175.5 423.656C1175.5 434.244 1167.18 442.562 1156.59 442.562ZM1043.16 442.562C1032.57 442.562 1024.25 434.244 1024.25 423.656C1024.25 413.069 1032.57 404.75 1043.16 404.75C1053.74 404.75 1062.06 413.069 1062.06 423.656C1062.06 434.244 1053.74 442.562 1043.16 442.562ZM1194.41 442.562C1183.82 442.562 1175.5 434.244 1175.5 423.656C1175.5 413.069 1183.82 404.75 1194.41 404.75C1204.99 404.75 1213.31 413.069 1213.31 423.656C1213.31 434.244 1204.99 442.562 1194.41 442.562ZM891.906 442.562C881.319 442.562 873 434.244 873 423.656C873 413.069 881.319 404.75 891.906 404.75C902.494 404.75 910.812 413.069 910.812 423.656C910.812 434.244 902.494 442.562 891.906 442.562ZM1118.78 480.375C1108.19 480.375 1099.88 472.056 1099.88 461.469C1099.88 450.881 1108.19 442.562 1118.78 442.562C1129.37 442.562 1137.69 450.881 1137.69 461.469C1137.69 472.056 1129.37 480.375 1118.78 480.375ZM1080.97 480.375C1070.38 480.375 1062.06 472.056 1062.06 461.469C1062.06 450.881 1070.38 442.562 1080.97 442.562C1091.56 442.562 1099.88 450.881 1099.88 461.469C1099.88 472.056 1091.56 480.375 1080.97 480.375ZM1118.78 518.188C1108.19 518.188 1099.88 509.869 1099.88 499.281C1099.88 488.694 1108.19 480.375 1118.78 480.375C1129.37 480.375 1137.69 488.694 1137.69 499.281C1137.69 509.869 1129.37 518.188 1118.78 518.188ZM1080.97 518.188C1070.38 518.188 1062.06 509.869 1062.06 499.281C1062.06 488.694 1070.38 480.375 1080.97 480.375C1091.56 480.375 1099.88 488.694 1099.88 499.281C1099.88 509.869 1091.56 518.188 1080.97 518.188ZM1118.78 556C1108.19 556 1099.88 547.681 1099.88 537.094C1099.88 526.506 1108.19 518.188 1118.78 518.188C1129.37 518.188 1137.69 526.506 1137.69 537.094C1137.69 547.681 1129.37 556 1118.78 556ZM1080.97 556C1070.38 556 1062.06 547.681 1062.06 537.094C1062.06 526.506 1070.38 518.188 1080.97 518.188C1091.56 518.188 1099.88 526.506 1099.88 537.094C1099.88 547.681 1091.56 556 1080.97 556Z" fill="black"/>
<path d="M207.969 215.688C197.381 215.688 189.062 207.369 189.062 196.781C189.062 186.194 197.381 177.875 207.969 177.875C218.556 177.875 226.875 186.194 226.875 196.781C226.875 207.369 218.556 215.688 207.969 215.688ZM245.781 215.688C235.194 215.688 226.875 207.369 226.875 196.781C226.875 186.194 235.194 177.875 245.781 177.875C256.369 177.875 264.688 186.194 264.688 196.781C264.688 207.369 256.369 215.688 245.781 215.688ZM207.969 253.5C197.381 253.5 189.062 245.181 189.062 234.594C189.062 224.006 197.381 215.688 207.969 215.688C218.556 215.688 226.875 224.006 226.875 234.594C226.875 245.181 218.556 253.5 207.969 253.5ZM170.156 253.5C159.569 253.5 151.25 245.181 151.25 234.594C151.25 224.006 159.569 215.688 170.156 215.688C180.744 215.688 189.062 224.006 189.062 234.594C189.062 245.181 180.744 253.5 170.156 253.5ZM245.781 253.5C235.194 253.5 226.875 245.181 226.875 234.594C226.875 224.006 235.194 215.688 245.781 215.688C256.369 215.688 264.688 224.006 264.688 234.594C264.688 245.181 256.369 253.5 245.781 253.5ZM170.156 291.312C159.569 291.312 151.25 282.994 151.25 272.406C151.25 261.819 159.569 253.5 170.156 253.5C180.744 253.5 189.062 261.819 189.062 272.406C189.062 282.994 180.744 291.312 170.156 291.312ZM132.344 291.312C121.756 291.312 113.438 282.994 113.438 272.406C113.438 261.819 121.756 253.5 132.344 253.5C142.931 253.5 151.25 261.819 151.25 272.406C151.25 282.994 142.931 291.312 132.344 291.312ZM207.969 291.312C197.381 291.312 189.062 282.994 189.062 272.406C189.062 261.819 197.381 253.5 207.969 253.5C218.556 253.5 226.875 261.819 226.875 272.406C226.875 282.994 218.556 291.312 207.969 291.312ZM245.781 291.312C235.194 291.312 226.875 282.994 226.875 272.406C226.875 261.819 235.194 253.5 245.781 253.5C256.369 253.5 264.688 261.819 264.688 272.406C264.688 282.994 256.369 291.312 245.781 291.312ZM132.344 329.125C121.756 329.125 113.438 320.806 113.438 310.219C113.438 299.631 121.756 291.312 132.344 291.312C142.931 291.312 151.25 299.631 151.25 310.219C151.25 320.806 142.931 329.125 132.344 329.125ZM94.5312 329.125C83.9438 329.125 75.625 320.806 75.625 310.219C75.625 299.631 83.9438 291.312 94.5312 291.312C105.119 291.312 113.438 299.631 113.438 310.219C113.438 320.806 105.119 329.125 94.5312 329.125ZM207.969 329.125C197.381 329.125 189.062 320.806 189.062 310.219C189.062 299.631 197.381 291.312 207.969 291.312C218.556 291.312 226.875 299.631 226.875 310.219C226.875 320.806 218.556 329.125 207.969 329.125ZM245.781 329.125C235.194 329.125 226.875 320.806 226.875 310.219C226.875 299.631 235.194 291.312 245.781 291.312C256.369 291.312 264.688 299.631 264.688 310.219C264.688 320.806 256.369 329.125 245.781 329.125ZM207.969 366.938C197.381 366.938 189.062 358.619 189.062 348.031C189.062 337.444 197.381 329.125 207.969 329.125C218.556 329.125 226.875 337.444 226.875 348.031C226.875 358.619 218.556 366.938 207.969 366.938ZM94.5312 366.938C83.9438 366.938 75.625 358.619 75.625 348.031C75.625 337.444 83.9438 329.125 94.5312 329.125C105.119 329.125 113.438 337.444 113.438 348.031C113.438 358.619 105.119 366.938 94.5312 366.938ZM56.7188 366.938C46.1313 366.938 37.8125 358.619 37.8125 348.031C37.8125 337.444 46.1313 329.125 56.7188 329.125C67.3062 329.125 75.625 337.444 75.625 348.031C75.625 358.619 67.3062 366.938 56.7188 366.938ZM245.781 366.938C235.194 366.938 226.875 358.619 226.875 348.031C226.875 337.444 235.194 329.125 245.781 329.125C256.369 329.125 264.688 337.444 264.688 348.031C264.688 358.619 256.369 366.938 245.781 366.938ZM245.781 404.75C235.194 404.75 226.875 396.431 226.875 385.844C226.875 375.256 235.194 366.938 245.781 366.938C256.369 366.938 264.688 375.256 264.688 385.844C264.688 396.431 256.369 404.75 245.781 404.75ZM283.594 404.75C273.006 404.75 264.688 396.431 264.688 385.844C264.688 375.256 273.006 366.938 283.594 366.938C294.181 366.938 302.5 375.256 302.5 385.844C302.5 396.431 294.181 404.75 283.594 404.75ZM170.156 404.75C159.569 404.75 151.25 396.431 151.25 385.844C151.25 375.256 159.569 366.938 170.156 366.938C180.744 366.938 189.062 375.256 189.062 385.844C189.062 396.431 180.744 404.75 170.156 404.75ZM56.7188 404.75C46.1313 404.75 37.8125 396.431 37.8125 385.844C37.8125 375.256 46.1313 366.938 56.7188 366.938C67.3062 366.938 75.625 375.256 75.625 385.844C75.625 396.431 67.3062 404.75 56.7188 404.75ZM94.5312 404.75C83.9438 404.75 75.625 396.431 75.625 385.844C75.625 375.256 83.9438 366.938 94.5312 366.938C105.119 366.938 113.438 375.256 113.438 385.844C113.438 396.431 105.119 404.75 94.5312 404.75ZM132.344 404.75C121.756 404.75 113.438 396.431 113.438 385.844C113.438 375.256 121.756 366.938 132.344 366.938C142.931 366.938 151.25 375.256 151.25 385.844C151.25 396.431 142.931 404.75 132.344 404.75ZM321.406 404.75C310.819 404.75 302.5 396.431 302.5 385.844C302.5 375.256 310.819 366.938 321.406 366.938C331.994 366.938 340.312 375.256 340.312 385.844C340.312 396.431 331.994 404.75 321.406 404.75ZM207.969 404.75C197.381 404.75 189.062 396.431 189.062 385.844C189.062 375.256 197.381 366.938 207.969 366.938C218.556 366.938 226.875 375.256 226.875 385.844C226.875 396.431 218.556 404.75 207.969 404.75ZM18.9062 404.75C8.31875 404.75 0 396.431 0 385.844C0 375.256 8.31875 366.938 18.9062 366.938C29.4937 366.938 37.8125 375.256 37.8125 385.844C37.8125 396.431 29.4937 404.75 18.9062 404.75ZM245.781 442.562C235.194 442.562 226.875 434.244 226.875 423.656C226.875 413.069 235.194 404.75 245.781 404.75C256.369 404.75 264.688 413.069 264.688 423.656C264.688 434.244 256.369 442.562 245.781 442.562ZM207.969 442.562C197.381 442.562 189.062 434.244 189.062 423.656C189.062 413.069 197.381 404.75 207.969 404.75C218.556 404.75 226.875 413.069 226.875 423.656C226.875 434.244 218.556 442.562 207.969 442.562ZM56.7188 442.562C46.1313 442.562 37.8125 434.244 37.8125 423.656C37.8125 413.069 46.1313 404.75 56.7188 404.75C67.3062 404.75 75.625 413.069 75.625 423.656C75.625 434.244 67.3062 442.562 56.7188 442.562ZM94.5312 442.562C83.9438 442.562 75.625 434.244 75.625 423.656C75.625 413.069 83.9438 404.75 94.5312 404.75C105.119 404.75 113.438 413.069 113.438 423.656C113.438 434.244 105.119 442.562 94.5312 442.562ZM132.344 442.562C121.756 442.562 113.438 434.244 113.438 423.656C113.438 413.069 121.756 404.75 132.344 404.75C142.931 404.75 151.25 413.069 151.25 423.656C151.25 434.244 142.931 442.562 132.344 442.562ZM283.594 442.562C273.006 442.562 264.688 434.244 264.688 423.656C264.688 413.069 273.006 404.75 283.594 404.75C294.181 404.75 302.5 413.069 302.5 423.656C302.5 434.244 294.181 442.562 283.594 442.562ZM170.156 442.562C159.569 442.562 151.25 434.244 151.25 423.656C151.25 413.069 159.569 404.75 170.156 404.75C180.744 404.75 189.062 413.069 189.062 423.656C189.062 434.244 180.744 442.562 170.156 442.562ZM321.406 442.562C310.819 442.562 302.5 434.244 302.5 423.656C302.5 413.069 310.819 404.75 321.406 404.75C331.994 404.75 340.312 413.069 340.312 423.656C340.312 434.244 331.994 442.562 321.406 442.562ZM18.9062 442.562C8.31875 442.562 0 434.244 0 423.656C0 413.069 8.31875 404.75 18.9062 404.75C29.4937 404.75 37.8125 413.069 37.8125 423.656C37.8125 434.244 29.4937 442.562 18.9062 442.562ZM245.781 480.375C235.194 480.375 226.875 472.056 226.875 461.469C226.875 450.881 235.194 442.562 245.781 442.562C256.369 442.562 264.688 450.881 264.688 461.469C264.688 472.056 256.369 480.375 245.781 480.375ZM207.969 480.375C197.381 480.375 189.062 472.056 189.062 461.469C189.062 450.881 197.381 442.562 207.969 442.562C218.556 442.562 226.875 450.881 226.875 461.469C226.875 472.056 218.556 480.375 207.969 480.375ZM245.781 518.188C235.194 518.188 226.875 509.869 226.875 499.281C226.875 488.694 235.194 480.375 245.781 480.375C256.369 480.375 264.688 488.694 264.688 499.281C264.688 509.869 256.369 518.188 245.781 518.188ZM207.969 518.188C197.381 518.188 189.062 509.869 189.062 499.281C189.062 488.694 197.381 480.375 207.969 480.375C218.556 480.375 226.875 488.694 226.875 499.281C226.875 509.869 218.556 518.188 207.969 518.188ZM245.781 556C235.194 556 226.875 547.681 226.875 537.094C226.875 526.506 235.194 518.188 245.781 518.188C256.369 518.188 264.688 526.506 264.688 537.094C264.688 547.681 256.369 556 245.781 556ZM207.969 556C197.381 556 189.062 547.681 189.062 537.094C189.062 526.506 197.381 518.188 207.969 518.188C218.556 518.188 226.875 526.506 226.875 537.094C226.875 547.681 218.556 556 207.969 556Z" fill="black"/>
</svg>
