<svg width="1338" height="696" viewBox="0 0 1338 696" fill="none" xmlns="http://www.w3.org/2000/svg">
<path d="M514.307 345.854C525.635 345.854 534.535 336.746 534.535 325.154C534.535 313.562 525.635 304.455 514.307 304.455C502.979 304.455 494.078 313.562 494.078 325.154C494.078 336.746 502.979 345.854 514.307 345.854Z" fill="black"/>
<path d="M756.889 261.55C768.217 261.55 777.117 252.442 777.117 240.851C777.117 229.259 768.217 220.151 756.889 220.151C745.561 220.151 736.66 229.259 736.66 240.851C736.66 252.442 745.561 261.55 756.889 261.55Z" fill="black"/>
<path d="M715.698 219.399C726.649 219.399 735.331 210.888 735.897 199.85L735.927 198.7V198.7C735.927 187.108 727.026 178 715.698 178C704.37 178 695.47 187.108 695.47 198.7C695.47 210.291 704.37 219.399 715.698 219.399Z" fill="black"/>
<path d="M674.49 219.399C685.44 219.399 694.123 210.888 694.689 199.85L694.719 198.7V198.7C694.719 187.108 685.818 178 674.49 178C663.162 178 654.262 187.108 654.262 198.7C654.262 210.291 663.162 219.399 674.49 219.399Z" fill="black"/>
<path d="M676.173 261.55C687.123 261.55 695.805 253.039 696.372 242.001L696.401 240.851V240.851C696.401 229.259 687.501 220.151 676.173 220.151C664.845 220.151 655.944 229.259 655.944 240.851C655.944 252.442 664.845 261.55 676.173 261.55Z" fill="black"/>
<path d="M514.776 261.55C525.727 261.55 534.409 253.039 534.975 242.001L535.005 240.851V240.851C535.005 229.259 526.104 220.151 514.776 220.151C503.448 220.151 494.548 229.259 494.548 240.851C494.548 252.442 503.448 261.55 514.776 261.55Z" fill="black"/>
<path d="M716.53 261.55C727.858 261.55 736.759 252.442 736.759 240.851C736.759 229.259 727.858 220.151 716.53 220.151C705.202 220.151 696.302 229.259 696.302 240.851C696.302 252.442 705.202 261.55 716.53 261.55Z" fill="black"/>
<path d="M555.116 261.55C566.066 261.55 574.749 253.039 575.315 242.001L575.345 240.851V240.851C575.345 229.259 566.444 220.151 555.116 220.151C543.788 220.151 534.888 229.259 534.888 240.851C534.888 252.442 543.788 261.55 555.116 261.55Z" fill="black"/>
<path d="M595.475 261.55C606.425 261.55 615.107 253.039 615.674 242.001L615.703 240.851V240.851C615.703 229.259 606.802 220.151 595.475 220.151C584.147 220.151 575.246 229.259 575.246 240.851C575.246 252.442 584.147 261.55 595.475 261.55Z" fill="black"/>
<path d="M635.833 261.55C646.783 261.55 655.465 253.039 656.032 242.001L656.061 240.851V240.851C656.061 229.259 647.161 220.151 635.833 220.151C624.505 220.151 615.604 229.259 615.604 240.851C615.604 252.442 624.505 261.55 635.833 261.55Z" fill="black"/>
<path d="M676.462 303.702C687.412 303.702 696.094 295.192 696.661 284.154L696.69 283.003V283.003C696.69 271.411 687.79 262.303 676.462 262.303C665.134 262.303 656.233 271.411 656.233 283.003C656.233 294.595 665.134 303.702 676.462 303.702Z" fill="black"/>
<path d="M757.54 303.702C768.868 303.702 777.768 294.595 777.768 283.003C777.768 271.411 768.868 262.303 757.54 262.303C746.212 262.303 737.312 271.411 737.312 283.003C737.312 294.595 746.212 303.702 757.54 303.702Z" fill="black"/>
<path d="M798.079 303.702C809.407 303.702 818.307 294.595 818.307 283.003C818.307 271.411 809.407 262.303 798.079 262.303C786.751 262.303 777.851 271.411 777.851 283.003C777.851 294.595 786.751 303.702 798.079 303.702Z" fill="black"/>
<path d="M433.228 303.702C444.556 303.702 453.457 294.595 453.457 283.003C453.457 271.411 444.556 262.303 433.228 262.303C421.901 262.303 413 271.411 413 283.003C413 294.595 421.901 303.702 433.228 303.702Z" fill="black"/>
<path d="M554.846 303.702C566.174 303.702 575.074 294.595 575.074 283.003C575.074 271.411 566.174 262.303 554.846 262.303C543.518 262.303 534.617 271.411 534.617 283.003C534.617 294.595 543.518 303.702 554.846 303.702Z" fill="black"/>
<path d="M514.307 303.702C525.257 303.702 533.939 295.192 534.506 284.154L534.535 283.003V283.003C534.535 271.411 525.635 262.303 514.307 262.303C502.979 262.303 494.078 271.411 494.078 283.003C494.078 294.595 502.979 303.702 514.307 303.702Z" fill="black"/>
<path d="M473.768 303.702C484.718 303.702 493.4 295.192 493.967 284.154L493.996 283.003V283.003C493.996 271.411 485.095 262.303 473.768 262.303C462.44 262.303 453.539 271.411 453.539 283.003C453.539 294.595 462.44 303.702 473.768 303.702Z" fill="black"/>
<path d="M717.001 303.702C727.951 303.702 736.633 295.192 737.2 284.154L737.229 283.003V283.003C737.229 271.411 728.329 262.303 717.001 262.303C705.673 262.303 696.772 271.411 696.772 283.003C696.772 294.595 705.673 303.702 717.001 303.702Z" fill="black"/>
<path d="M757.54 345.854C768.868 345.854 777.768 336.746 777.768 325.154C777.768 313.562 768.868 304.455 757.54 304.455C746.212 304.455 737.312 313.562 737.312 325.154C737.312 336.746 746.212 345.854 757.54 345.854Z" fill="black"/>
<path d="M798.079 345.854C809.407 345.854 818.307 336.746 818.307 325.154C818.307 313.562 809.407 304.455 798.079 304.455C786.751 304.455 777.851 313.562 777.851 325.154C777.851 336.746 786.751 345.854 798.079 345.854Z" fill="black"/>
<path d="M433.228 345.854C444.556 345.854 453.457 336.746 453.457 325.154C453.457 313.562 444.556 304.455 433.228 304.455C421.901 304.455 413 313.562 413 325.154C413 336.746 421.901 345.854 433.228 345.854Z" fill="black"/>
<path d="M798.079 388.006C809.407 388.006 818.307 378.898 818.307 367.306C818.307 355.715 809.407 346.607 798.079 346.607C786.751 346.607 777.851 355.715 777.851 367.306C777.851 378.898 786.751 388.006 798.079 388.006Z" fill="black"/>
<path d="M433.228 388.006C444.556 388.006 453.457 378.898 453.457 367.306C453.457 355.715 444.556 346.607 433.228 346.607C421.901 346.607 413 355.715 413 367.306C413 378.898 421.901 388.006 433.228 388.006Z" fill="black"/>
<path d="M717.001 345.854C727.951 345.854 736.633 337.343 737.2 326.305L737.229 325.154V325.154C737.229 313.562 728.329 304.455 717.001 304.455C705.673 304.455 696.772 313.562 696.772 325.154C696.772 336.746 705.673 345.854 717.001 345.854Z" fill="black"/>
<path d="M473.768 345.854C484.718 345.854 493.4 337.343 493.967 326.305L493.996 325.154V325.154C493.996 313.562 485.095 304.455 473.768 304.455C462.44 304.455 453.539 313.562 453.539 325.154C453.539 336.746 462.44 345.854 473.768 345.854Z" fill="black"/>
<path d="M757.54 388.006C768.868 388.006 777.768 378.898 777.768 367.306C777.768 355.715 768.868 346.607 757.54 346.607C746.212 346.607 737.312 355.715 737.312 367.306C737.312 378.898 746.212 388.006 757.54 388.006Z" fill="black"/>
<path d="M514.307 388.006C525.635 388.006 534.535 378.898 534.535 367.306C534.535 355.715 525.635 346.607 514.307 346.607C502.979 346.607 494.078 355.715 494.078 367.306C494.078 378.898 502.979 388.006 514.307 388.006Z" fill="black"/>
<path d="M473.768 388.006C484.718 388.006 493.4 379.495 493.967 368.457L493.996 367.306V367.306C493.996 355.715 485.095 346.607 473.768 346.607C462.44 346.607 453.539 355.715 453.539 367.306C453.539 378.898 462.44 388.006 473.768 388.006Z" fill="black"/>
<path d="M717.001 388.006C727.951 388.006 736.633 379.495 737.2 368.457L737.229 367.306V367.306C737.229 355.715 728.329 346.607 717.001 346.607C705.673 346.607 696.772 355.715 696.772 367.306C696.772 378.898 705.673 388.006 717.001 388.006Z" fill="black"/>
<path d="M676.173 430.157C687.123 430.157 695.805 421.646 696.372 410.608L696.401 409.458V409.458C696.401 397.866 687.501 388.758 676.173 388.758C664.845 388.758 655.944 397.866 655.944 409.458C655.944 421.049 664.845 430.157 676.173 430.157Z" fill="black"/>
<path d="M635.833 430.157C646.783 430.157 655.465 421.646 656.032 410.608L656.061 409.458V409.458C656.061 397.866 647.161 388.758 635.833 388.758C624.505 388.758 615.604 397.866 615.604 409.458C615.604 421.049 624.505 430.157 635.833 430.157Z" fill="black"/>
<path d="M595.475 430.157C606.425 430.157 615.107 421.646 615.674 410.608L615.703 409.458V409.458C615.703 397.866 606.802 388.758 595.475 388.758C584.147 388.758 575.246 397.866 575.246 409.458C575.246 421.049 584.147 430.157 595.475 430.157Z" fill="black"/>
<path d="M676.462 388.006C687.412 388.006 696.094 379.495 696.661 368.457L696.69 367.306V367.306C696.69 355.715 687.79 346.607 676.462 346.607C665.134 346.607 656.233 355.715 656.233 367.306C656.233 378.898 665.134 388.006 676.462 388.006Z" fill="black"/>
<path d="M474.419 430.157C485.369 430.157 494.051 421.646 494.618 410.608L494.647 409.458V409.458C494.647 397.866 485.747 388.758 474.419 388.758C463.091 388.758 454.19 397.866 454.19 409.458C454.19 421.049 463.091 430.157 474.419 430.157Z" fill="black"/>
<path d="M514.776 430.157C526.104 430.157 535.005 421.049 535.005 409.458C535.005 397.866 526.104 388.758 514.776 388.758C503.448 388.758 494.548 397.866 494.548 409.458C494.548 421.049 503.448 430.157 514.776 430.157Z" fill="black"/>
<path d="M756.889 430.157C768.217 430.157 777.117 421.049 777.117 409.458C777.117 397.866 768.217 388.758 756.889 388.758C745.561 388.758 736.66 397.866 736.66 409.458C736.66 421.049 745.561 430.157 756.889 430.157Z" fill="black"/>
<path d="M716.53 430.157C727.481 430.157 736.163 421.646 736.729 410.608L736.759 409.458V409.458C736.759 397.866 727.858 388.758 716.53 388.758C705.202 388.758 696.302 397.866 696.302 409.458C696.302 421.049 705.202 430.157 716.53 430.157Z" fill="black"/>
<path d="M715.698 472.309C727.026 472.309 735.927 463.202 735.927 451.61C735.927 440.018 727.026 430.91 715.698 430.91C704.37 430.91 695.47 440.018 695.47 451.61C695.47 463.202 704.37 472.309 715.698 472.309Z" fill="black"/>
<path d="M675.685 472.309C686.635 472.309 695.317 463.799 695.884 452.761L695.913 451.61V451.61C695.913 440.018 687.012 430.91 675.685 430.91C664.357 430.91 655.456 440.018 655.456 451.61C655.456 463.202 664.357 472.309 675.685 472.309Z" fill="black"/>
<path d="M635.923 303.702C646.873 303.702 655.555 295.192 656.122 284.154L656.151 283.003V283.003C656.151 271.411 647.251 262.303 635.923 262.303C624.595 262.303 615.694 271.411 615.694 283.003C615.694 294.595 624.595 303.702 635.923 303.702Z" fill="black"/>
<path d="M555.623 472.309C566.573 472.309 575.255 463.799 575.822 452.761L575.851 451.61V451.61C575.851 440.018 566.951 430.91 555.623 430.91C544.295 430.91 535.395 440.018 535.395 451.61C535.395 463.202 544.295 472.309 555.623 472.309Z" fill="black"/>
<path d="M595.638 472.309C606.588 472.309 615.27 463.799 615.837 452.761L615.866 451.61V451.61C615.866 440.018 606.966 430.91 595.638 430.91C584.31 430.91 575.409 440.018 575.409 451.61C575.409 463.202 584.31 472.309 595.638 472.309Z" fill="black"/>
<path d="M635.651 472.309C646.602 472.309 655.284 463.799 655.85 452.761L655.88 451.61V451.61C655.88 440.018 646.979 430.91 635.651 430.91C624.323 430.91 615.423 440.018 615.423 451.61C615.423 463.202 624.323 472.309 635.651 472.309Z" fill="black"/>
<path d="M515.608 472.309C526.559 472.309 535.241 463.799 535.807 452.761L535.837 451.61V451.61C535.837 440.018 526.936 430.91 515.608 430.91C504.28 430.91 495.38 440.018 495.38 451.61C495.38 463.202 504.28 472.309 515.608 472.309Z" fill="black"/>
<path d="M675.974 515.214C687.301 515.214 696.202 506.106 696.202 494.514C696.202 482.922 687.301 473.815 675.974 473.815C664.646 473.815 655.745 482.922 655.745 494.514C655.745 506.106 664.646 515.214 675.974 515.214Z" fill="black"/>
<path d="M635.507 515.214C646.457 515.214 655.139 506.703 655.706 495.665L655.735 494.514C655.735 482.922 646.835 473.815 635.507 473.815C624.179 473.815 615.278 482.922 615.278 494.514C615.278 506.106 624.179 515.214 635.507 515.214Z" fill="black"/>
<path d="M595.059 515.214C606.009 515.214 614.691 506.703 615.258 495.665L615.287 494.514V494.514C615.287 482.922 606.386 473.815 595.059 473.815C583.731 473.815 574.83 482.922 574.83 494.514C574.83 506.106 583.731 515.214 595.059 515.214Z" fill="black"/>
<path d="M676.462 345.854C687.412 345.854 696.094 337.343 696.661 326.305L696.69 325.154V325.154C696.69 313.562 687.79 304.455 676.462 304.455C665.134 304.455 656.233 313.562 656.233 325.154C656.233 336.746 665.134 345.854 676.462 345.854Z" fill="black"/>
<path d="M635.923 345.854C646.873 345.854 655.555 337.343 656.122 326.305L656.151 325.154V325.154C656.151 313.562 647.251 304.455 635.923 304.455C624.595 304.455 615.694 313.562 615.694 325.154C615.694 336.746 624.595 345.854 635.923 345.854Z" fill="black"/>
<path d="M595.384 345.854C606.334 345.854 615.016 337.343 615.583 326.305L615.612 325.154V325.154C615.612 313.562 606.712 304.455 595.384 304.455C584.056 304.455 575.155 313.562 575.155 325.154C575.155 336.746 584.056 345.854 595.384 345.854Z" fill="black"/>
<path d="M554.592 515.214C565.542 515.214 574.224 506.703 574.791 495.665L574.82 494.514V494.514C574.82 482.922 565.92 473.815 554.592 473.815C543.264 473.815 534.363 482.922 534.363 494.514C534.363 506.106 543.264 515.214 554.592 515.214Z" fill="black"/>
<path d="M554.846 345.854C565.796 345.854 574.478 337.343 575.045 326.305L575.074 325.154V325.154C575.074 313.562 566.174 304.455 554.846 304.455C543.518 304.455 534.617 313.562 534.617 325.154C534.617 336.746 543.518 345.854 554.846 345.854Z" fill="black"/>
<path d="M595.384 303.702C606.334 303.702 615.016 295.192 615.583 284.154L615.612 283.003V283.003C615.612 271.411 606.712 262.303 595.384 262.303C584.056 262.303 575.155 271.411 575.155 283.003C575.155 294.595 584.056 303.702 595.384 303.702Z" fill="black"/>
<path d="M474.419 261.55C485.369 261.55 494.051 253.039 494.618 242.001L494.647 240.851V240.851C494.647 229.259 485.747 220.151 474.419 220.151C463.091 220.151 454.19 229.259 454.19 240.851C454.19 252.442 463.091 261.55 474.419 261.55Z" fill="black"/>
<path d="M555.116 430.157C566.444 430.157 575.345 421.049 575.345 409.458C575.345 397.866 566.444 388.758 555.116 388.758C543.788 388.758 534.888 397.866 534.888 409.458C534.888 421.049 543.788 430.157 555.116 430.157Z" fill="black"/>
<path d="M554.846 388.006C566.174 388.006 575.074 378.898 575.074 367.306C575.074 355.715 566.174 346.607 554.846 346.607C543.518 346.607 534.617 355.715 534.617 367.306C534.617 378.898 543.518 388.006 554.846 388.006Z" fill="black"/>
<path d="M595.384 388.006C606.712 388.006 615.612 378.898 615.612 367.306C615.612 355.715 606.712 346.607 595.384 346.607C584.056 346.607 575.155 355.715 575.155 367.306C575.155 378.898 584.056 388.006 595.384 388.006Z" fill="black"/>
<path d="M635.923 388.006C647.251 388.006 656.151 378.898 656.151 367.306C656.151 355.715 647.251 346.607 635.923 346.607C624.595 346.607 615.694 355.715 615.694 367.306C615.694 378.898 624.595 388.006 635.923 388.006Z" fill="black"/>
<path d="M515.608 219.399C526.559 219.399 535.241 210.888 535.807 199.85L535.837 198.7V198.7C535.837 187.108 526.936 178 515.608 178C504.28 178 495.38 187.108 495.38 198.7C495.38 210.291 504.28 219.399 515.608 219.399Z" fill="black"/>
<path d="M614.18 555.86C625.508 555.86 634.408 546.752 634.408 535.16C634.408 523.569 625.508 514.461 614.18 514.461C602.852 514.461 593.951 523.569 593.951 535.16C593.951 546.752 602.852 555.86 614.18 555.86Z" fill="black"/>
<path d="M556.799 219.399C567.749 219.399 576.431 210.888 576.998 199.85L577.027 198.7V198.7C577.027 187.108 568.127 178 556.799 178C545.471 178 536.57 187.108 536.57 198.7C536.57 210.291 545.471 219.399 556.799 219.399Z" fill="black"/>
<path d="M789.61 567C816.68 567 839.041 544.117 839.041 515.815C839.041 487.513 817.268 465.233 789.61 465.233C761.364 465.233 739.591 487.513 739.591 515.815C739.591 544.117 761.952 567 789.61 567Z" fill="#F000B8"/>
<path d="M1012.31 345.854C1023.63 345.854 1032.54 336.746 1032.54 325.154C1032.54 313.562 1023.63 304.455 1012.31 304.455C1000.98 304.455 992.078 313.562 992.078 325.154C992.078 336.746 1000.98 345.854 1012.31 345.854Z" fill="black"/>
<path d="M1254.89 261.55C1266.22 261.55 1275.12 252.442 1275.12 240.851C1275.12 229.259 1266.22 220.151 1254.89 220.151C1243.56 220.151 1234.66 229.259 1234.66 240.851C1234.66 252.442 1243.56 261.55 1254.89 261.55Z" fill="black"/>
<path d="M1213.7 219.399C1224.65 219.399 1233.33 210.888 1233.9 199.85L1233.93 198.7V198.7C1233.93 187.108 1225.03 178 1213.7 178C1202.37 178 1193.47 187.108 1193.47 198.7C1193.47 210.291 1202.37 219.399 1213.7 219.399Z" fill="black"/>
<path d="M1172.49 219.399C1183.44 219.399 1192.12 210.888 1192.69 199.85L1192.72 198.7V198.7C1192.72 187.108 1183.82 178 1172.49 178C1161.16 178 1152.26 187.108 1152.26 198.7C1152.26 210.291 1161.16 219.399 1172.49 219.399Z" fill="black"/>
<path d="M1174.17 261.55C1185.12 261.55 1193.81 253.039 1194.37 242.001L1194.4 240.851V240.851C1194.4 229.259 1185.5 220.151 1174.17 220.151C1162.84 220.151 1153.94 229.259 1153.94 240.851C1153.94 252.442 1162.84 261.55 1174.17 261.55Z" fill="black"/>
<path d="M1012.78 261.55C1023.73 261.55 1032.41 253.039 1032.98 242.001L1033 240.851V240.851C1033 229.259 1024.1 220.151 1012.78 220.151C1001.45 220.151 992.548 229.259 992.548 240.851C992.548 252.442 1001.45 261.55 1012.78 261.55Z" fill="black"/>
<path d="M1214.53 261.55C1225.86 261.55 1234.76 252.442 1234.76 240.851C1234.76 229.259 1225.86 220.151 1214.53 220.151C1203.2 220.151 1194.3 229.259 1194.3 240.851C1194.3 252.442 1203.2 261.55 1214.53 261.55Z" fill="black"/>
<path d="M1053.12 261.55C1064.07 261.55 1072.75 253.039 1073.32 242.001L1073.34 240.851V240.851C1073.34 229.259 1064.44 220.151 1053.12 220.151C1041.79 220.151 1032.89 229.259 1032.89 240.851C1032.89 252.442 1041.79 261.55 1053.12 261.55Z" fill="black"/>
<path d="M1093.47 261.55C1104.42 261.55 1113.11 253.039 1113.67 242.001L1113.7 240.851V240.851C1113.7 229.259 1104.8 220.151 1093.47 220.151C1082.15 220.151 1073.25 229.259 1073.25 240.851C1073.25 252.442 1082.15 261.55 1093.47 261.55Z" fill="black"/>
<path d="M1133.83 261.55C1144.78 261.55 1153.47 253.039 1154.03 242.001L1154.06 240.851V240.851C1154.06 229.259 1145.16 220.151 1133.83 220.151C1122.51 220.151 1113.6 229.259 1113.6 240.851C1113.6 252.442 1122.51 261.55 1133.83 261.55Z" fill="black"/>
<path d="M1174.46 303.702C1185.41 303.702 1194.09 295.192 1194.66 284.154L1194.69 283.003V283.003C1194.69 271.411 1185.79 262.303 1174.46 262.303C1163.13 262.303 1154.23 271.411 1154.23 283.003C1154.23 294.595 1163.13 303.702 1174.46 303.702Z" fill="black"/>
<path d="M1255.54 303.702C1266.87 303.702 1275.77 294.595 1275.77 283.003C1275.77 271.411 1266.87 262.303 1255.54 262.303C1244.21 262.303 1235.31 271.411 1235.31 283.003C1235.31 294.595 1244.21 303.702 1255.54 303.702Z" fill="black"/>
<path d="M1296.08 303.702C1307.41 303.702 1316.31 294.595 1316.31 283.003C1316.31 271.411 1307.41 262.303 1296.08 262.303C1284.75 262.303 1275.85 271.411 1275.85 283.003C1275.85 294.595 1284.75 303.702 1296.08 303.702Z" fill="black"/>
<path d="M931.228 303.702C942.556 303.702 951.457 294.595 951.457 283.003C951.457 271.411 942.556 262.303 931.228 262.303C919.901 262.303 911 271.411 911 283.003C911 294.595 919.901 303.702 931.228 303.702Z" fill="black"/>
<path d="M1052.85 303.702C1064.17 303.702 1073.07 294.595 1073.07 283.003C1073.07 271.411 1064.17 262.303 1052.85 262.303C1041.52 262.303 1032.62 271.411 1032.62 283.003C1032.62 294.595 1041.52 303.702 1052.85 303.702Z" fill="black"/>
<path d="M1012.31 303.702C1023.26 303.702 1031.94 295.192 1032.51 284.154L1032.54 283.003V283.003C1032.54 271.411 1023.63 262.303 1012.31 262.303C1000.98 262.303 992.078 271.411 992.078 283.003C992.078 294.595 1000.98 303.702 1012.31 303.702Z" fill="black"/>
<path d="M971.768 303.702C982.718 303.702 991.4 295.192 991.967 284.154L991.996 283.003V283.003C991.996 271.411 983.095 262.303 971.768 262.303C960.44 262.303 951.539 271.411 951.539 283.003C951.539 294.595 960.44 303.702 971.768 303.702Z" fill="black"/>
<path d="M1215 303.702C1225.95 303.702 1234.63 295.192 1235.2 284.154L1235.23 283.003V283.003C1235.23 271.411 1226.33 262.303 1215 262.303C1203.67 262.303 1194.77 271.411 1194.77 283.003C1194.77 294.595 1203.67 303.702 1215 303.702Z" fill="black"/>
<path d="M1255.54 345.854C1266.87 345.854 1275.77 336.746 1275.77 325.154C1275.77 313.562 1266.87 304.455 1255.54 304.455C1244.21 304.455 1235.31 313.562 1235.31 325.154C1235.31 336.746 1244.21 345.854 1255.54 345.854Z" fill="black"/>
<path d="M1296.08 345.854C1307.41 345.854 1316.31 336.746 1316.31 325.154C1316.31 313.562 1307.41 304.455 1296.08 304.455C1284.75 304.455 1275.85 313.562 1275.85 325.154C1275.85 336.746 1284.75 345.854 1296.08 345.854Z" fill="black"/>
<path d="M931.228 345.854C942.556 345.854 951.457 336.746 951.457 325.154C951.457 313.562 942.556 304.455 931.228 304.455C919.901 304.455 911 313.562 911 325.154C911 336.746 919.901 345.854 931.228 345.854Z" fill="black"/>
<path d="M1296.08 388.006C1307.41 388.006 1316.31 378.898 1316.31 367.306C1316.31 355.715 1307.41 346.607 1296.08 346.607C1284.75 346.607 1275.85 355.715 1275.85 367.306C1275.85 378.898 1284.75 388.006 1296.08 388.006Z" fill="black"/>
<path d="M931.228 388.006C942.556 388.006 951.457 378.898 951.457 367.306C951.457 355.715 942.556 346.607 931.228 346.607C919.901 346.607 911 355.715 911 367.306C911 378.898 919.901 388.006 931.228 388.006Z" fill="black"/>
<path d="M1215 345.854C1225.95 345.854 1234.63 337.343 1235.2 326.305L1235.23 325.154V325.154C1235.23 313.562 1226.33 304.455 1215 304.455C1203.67 304.455 1194.77 313.562 1194.77 325.154C1194.77 336.746 1203.67 345.854 1215 345.854Z" fill="black"/>
<path d="M971.768 345.854C982.718 345.854 991.4 337.343 991.967 326.305L991.996 325.154V325.154C991.996 313.562 983.095 304.455 971.768 304.455C960.44 304.455 951.539 313.562 951.539 325.154C951.539 336.746 960.44 345.854 971.768 345.854Z" fill="black"/>
<path d="M1255.54 388.006C1266.87 388.006 1275.77 378.898 1275.77 367.306C1275.77 355.715 1266.87 346.607 1255.54 346.607C1244.21 346.607 1235.31 355.715 1235.31 367.306C1235.31 378.898 1244.21 388.006 1255.54 388.006Z" fill="black"/>
<path d="M1012.31 388.006C1023.63 388.006 1032.54 378.898 1032.54 367.306C1032.54 355.715 1023.63 346.607 1012.31 346.607C1000.98 346.607 992.078 355.715 992.078 367.306C992.078 378.898 1000.98 388.006 1012.31 388.006Z" fill="black"/>
<path d="M971.768 388.006C982.718 388.006 991.4 379.495 991.967 368.457L991.996 367.306V367.306C991.996 355.715 983.095 346.607 971.768 346.607C960.44 346.607 951.539 355.715 951.539 367.306C951.539 378.898 960.44 388.006 971.768 388.006Z" fill="black"/>
<path d="M1215 388.006C1225.95 388.006 1234.63 379.495 1235.2 368.457L1235.23 367.306V367.306C1235.23 355.715 1226.33 346.607 1215 346.607C1203.67 346.607 1194.77 355.715 1194.77 367.306C1194.77 378.898 1203.67 388.006 1215 388.006Z" fill="black"/>
<path d="M1174.17 430.157C1185.12 430.157 1193.81 421.646 1194.37 410.608L1194.4 409.458V409.458C1194.4 397.866 1185.5 388.758 1174.17 388.758C1162.84 388.758 1153.94 397.866 1153.94 409.458C1153.94 421.049 1162.84 430.157 1174.17 430.157Z" fill="black"/>
<path d="M1133.83 430.157C1144.78 430.157 1153.47 421.646 1154.03 410.608L1154.06 409.458V409.458C1154.06 397.866 1145.16 388.758 1133.83 388.758C1122.51 388.758 1113.6 397.866 1113.6 409.458C1113.6 421.049 1122.51 430.157 1133.83 430.157Z" fill="black"/>
<path d="M1093.47 430.157C1104.42 430.157 1113.11 421.646 1113.67 410.608L1113.7 409.458V409.458C1113.7 397.866 1104.8 388.758 1093.47 388.758C1082.15 388.758 1073.25 397.866 1073.25 409.458C1073.25 421.049 1082.15 430.157 1093.47 430.157Z" fill="black"/>
<path d="M1174.46 388.006C1185.41 388.006 1194.09 379.495 1194.66 368.457L1194.69 367.306V367.306C1194.69 355.715 1185.79 346.607 1174.46 346.607C1163.13 346.607 1154.23 355.715 1154.23 367.306C1154.23 378.898 1163.13 388.006 1174.46 388.006Z" fill="black"/>
<path d="M972.419 430.157C983.369 430.157 992.051 421.646 992.618 410.608L992.647 409.458V409.458C992.647 397.866 983.747 388.758 972.419 388.758C961.091 388.758 952.19 397.866 952.19 409.458C952.19 421.049 961.091 430.157 972.419 430.157Z" fill="black"/>
<path d="M1012.78 430.157C1024.1 430.157 1033 421.049 1033 409.458C1033 397.866 1024.1 388.758 1012.78 388.758C1001.45 388.758 992.548 397.866 992.548 409.458C992.548 421.049 1001.45 430.157 1012.78 430.157Z" fill="black"/>
<path d="M1254.89 430.157C1266.22 430.157 1275.12 421.049 1275.12 409.458C1275.12 397.866 1266.22 388.758 1254.89 388.758C1243.56 388.758 1234.66 397.866 1234.66 409.458C1234.66 421.049 1243.56 430.157 1254.89 430.157Z" fill="black"/>
<path d="M1214.53 430.157C1225.48 430.157 1234.16 421.646 1234.73 410.608L1234.76 409.458V409.458C1234.76 397.866 1225.86 388.758 1214.53 388.758C1203.2 388.758 1194.3 397.866 1194.3 409.458C1194.3 421.049 1203.2 430.157 1214.53 430.157Z" fill="black"/>
<path d="M1213.7 472.309C1225.03 472.309 1233.93 463.202 1233.93 451.61C1233.93 440.018 1225.03 430.91 1213.7 430.91C1202.37 430.91 1193.47 440.018 1193.47 451.61C1193.47 463.202 1202.37 472.309 1213.7 472.309Z" fill="black"/>
<path d="M1173.68 472.309C1184.63 472.309 1193.32 463.799 1193.88 452.761L1193.91 451.61V451.61C1193.91 440.018 1185.01 430.91 1173.68 430.91C1162.36 430.91 1153.46 440.018 1153.46 451.61C1153.46 463.202 1162.36 472.309 1173.68 472.309Z" fill="black"/>
<path d="M1133.92 303.702C1144.87 303.702 1153.56 295.192 1154.12 284.154L1154.15 283.003V283.003C1154.15 271.411 1145.25 262.303 1133.92 262.303C1122.59 262.303 1113.69 271.411 1113.69 283.003C1113.69 294.595 1122.59 303.702 1133.92 303.702Z" fill="black"/>
<path d="M1053.62 472.309C1064.57 472.309 1073.26 463.799 1073.82 452.761L1073.85 451.61V451.61C1073.85 440.018 1064.95 430.91 1053.62 430.91C1042.3 430.91 1033.39 440.018 1033.39 451.61C1033.39 463.202 1042.3 472.309 1053.62 472.309Z" fill="black"/>
<path d="M1093.64 472.309C1104.59 472.309 1113.27 463.799 1113.84 452.761L1113.87 451.61V451.61C1113.87 440.018 1104.97 430.91 1093.64 430.91C1082.31 430.91 1073.41 440.018 1073.41 451.61C1073.41 463.202 1082.31 472.309 1093.64 472.309Z" fill="black"/>
<path d="M1133.65 472.309C1144.6 472.309 1153.28 463.799 1153.85 452.761L1153.88 451.61V451.61C1153.88 440.018 1144.98 430.91 1133.65 430.91C1122.32 430.91 1113.42 440.018 1113.42 451.61C1113.42 463.202 1122.32 472.309 1133.65 472.309Z" fill="black"/>
<path d="M1013.61 472.309C1024.56 472.309 1033.24 463.799 1033.81 452.761L1033.84 451.61V451.61C1033.84 440.018 1024.94 430.91 1013.61 430.91C1002.28 430.91 993.38 440.018 993.38 451.61C993.38 463.202 1002.28 472.309 1013.61 472.309Z" fill="black"/>
<path d="M1173.97 515.214C1185.3 515.214 1194.2 506.106 1194.2 494.514C1194.2 482.922 1185.3 473.815 1173.97 473.815C1162.65 473.815 1153.75 482.922 1153.75 494.514C1153.75 506.106 1162.65 515.214 1173.97 515.214Z" fill="black"/>
<path d="M1133.51 515.214C1144.46 515.214 1153.14 506.703 1153.71 495.665L1153.74 494.514C1153.74 482.922 1144.83 473.815 1133.51 473.815C1122.18 473.815 1113.28 482.922 1113.28 494.514C1113.28 506.106 1122.18 515.214 1133.51 515.214Z" fill="black"/>
<path d="M1093.06 515.214C1104.01 515.214 1112.69 506.703 1113.26 495.665L1113.29 494.514V494.514C1113.29 482.922 1104.39 473.815 1093.06 473.815C1081.73 473.815 1072.83 482.922 1072.83 494.514C1072.83 506.106 1081.73 515.214 1093.06 515.214Z" fill="black"/>
<path d="M1174.46 345.854C1185.41 345.854 1194.09 337.343 1194.66 326.305L1194.69 325.154V325.154C1194.69 313.562 1185.79 304.455 1174.46 304.455C1163.13 304.455 1154.23 313.562 1154.23 325.154C1154.23 336.746 1163.13 345.854 1174.46 345.854Z" fill="black"/>
<path d="M1133.92 345.854C1144.87 345.854 1153.56 337.343 1154.12 326.305L1154.15 325.154V325.154C1154.15 313.562 1145.25 304.455 1133.92 304.455C1122.59 304.455 1113.69 313.562 1113.69 325.154C1113.69 336.746 1122.59 345.854 1133.92 345.854Z" fill="black"/>
<path d="M1093.38 345.854C1104.33 345.854 1113.02 337.343 1113.58 326.305L1113.61 325.154V325.154C1113.61 313.562 1104.71 304.455 1093.38 304.455C1082.06 304.455 1073.16 313.562 1073.16 325.154C1073.16 336.746 1082.06 345.854 1093.38 345.854Z" fill="black"/>
<path d="M1052.59 515.214C1063.54 515.214 1072.22 506.703 1072.79 495.665L1072.82 494.514V494.514C1072.82 482.922 1063.92 473.815 1052.59 473.815C1041.26 473.815 1032.36 482.922 1032.36 494.514C1032.36 506.106 1041.26 515.214 1052.59 515.214Z" fill="black"/>
<path d="M1052.85 345.854C1063.8 345.854 1072.48 337.343 1073.04 326.305L1073.07 325.154V325.154C1073.07 313.562 1064.17 304.455 1052.85 304.455C1041.52 304.455 1032.62 313.562 1032.62 325.154C1032.62 336.746 1041.52 345.854 1052.85 345.854Z" fill="black"/>
<path d="M1093.38 303.702C1104.33 303.702 1113.02 295.192 1113.58 284.154L1113.61 283.003V283.003C1113.61 271.411 1104.71 262.303 1093.38 262.303C1082.06 262.303 1073.16 271.411 1073.16 283.003C1073.16 294.595 1082.06 303.702 1093.38 303.702Z" fill="black"/>
<path d="M972.419 261.55C983.369 261.55 992.051 253.039 992.618 242.001L992.647 240.851V240.851C992.647 229.259 983.747 220.151 972.419 220.151C961.091 220.151 952.19 229.259 952.19 240.851C952.19 252.442 961.091 261.55 972.419 261.55Z" fill="black"/>
<path d="M1053.12 430.157C1064.44 430.157 1073.34 421.049 1073.34 409.458C1073.34 397.866 1064.44 388.758 1053.12 388.758C1041.79 388.758 1032.89 397.866 1032.89 409.458C1032.89 421.049 1041.79 430.157 1053.12 430.157Z" fill="black"/>
<path d="M1052.85 388.006C1064.17 388.006 1073.07 378.898 1073.07 367.306C1073.07 355.715 1064.17 346.607 1052.85 346.607C1041.52 346.607 1032.62 355.715 1032.62 367.306C1032.62 378.898 1041.52 388.006 1052.85 388.006Z" fill="black"/>
<path d="M1093.38 388.006C1104.71 388.006 1113.61 378.898 1113.61 367.306C1113.61 355.715 1104.71 346.607 1093.38 346.607C1082.06 346.607 1073.16 355.715 1073.16 367.306C1073.16 378.898 1082.06 388.006 1093.38 388.006Z" fill="black"/>
<path d="M1133.92 388.006C1145.25 388.006 1154.15 378.898 1154.15 367.306C1154.15 355.715 1145.25 346.607 1133.92 346.607C1122.59 346.607 1113.69 355.715 1113.69 367.306C1113.69 378.898 1122.59 388.006 1133.92 388.006Z" fill="black"/>
<path d="M1013.61 219.399C1024.56 219.399 1033.24 210.888 1033.81 199.85L1033.84 198.7V198.7C1033.84 187.108 1024.94 178 1013.61 178C1002.28 178 993.38 187.108 993.38 198.7C993.38 210.291 1002.28 219.399 1013.61 219.399Z" fill="black"/>
<path d="M1112.18 555.86C1123.51 555.86 1132.41 546.752 1132.41 535.16C1132.41 523.569 1123.51 514.461 1112.18 514.461C1100.85 514.461 1091.95 523.569 1091.95 535.16C1091.95 546.752 1100.85 555.86 1112.18 555.86Z" fill="black"/>
<path d="M1054.8 219.399C1065.75 219.399 1074.43 210.888 1075 199.85L1075.03 198.7V198.7C1075.03 187.108 1066.13 178 1054.8 178C1043.47 178 1034.57 187.108 1034.57 198.7C1034.57 210.291 1043.47 219.399 1054.8 219.399Z" fill="black"/>
<path d="M1287.61 567C1314.68 567 1337.04 544.117 1337.04 515.815C1337.04 487.513 1315.27 465.233 1287.61 465.233C1259.36 465.233 1237.59 487.513 1237.59 515.815C1237.59 544.117 1259.95 567 1287.61 567Z" fill="#F000B8"/>
<path d="M170.156 215.688C159.569 215.688 151.25 207.369 151.25 196.781C151.25 186.194 159.569 177.875 170.156 177.875C180.744 177.875 189.062 186.194 189.062 196.781C189.062 207.369 180.744 215.688 170.156 215.688ZM132.344 215.688C121.756 215.688 113.438 207.369 113.438 196.781C113.438 186.194 121.756 177.875 132.344 177.875C142.931 177.875 151.25 186.194 151.25 196.781C151.25 207.369 142.931 215.688 132.344 215.688ZM94.5312 215.688C83.9438 215.688 75.625 207.369 75.625 196.781C75.625 186.194 83.9438 177.875 94.5312 177.875C105.119 177.875 113.438 186.194 113.438 196.781C113.438 207.369 105.119 215.688 94.5312 215.688ZM207.969 215.688C197.381 215.688 189.062 207.369 189.062 196.781C189.062 186.194 197.381 177.875 207.969 177.875C218.556 177.875 226.875 186.194 226.875 196.781C226.875 207.369 218.556 215.688 207.969 215.688ZM245.781 215.688C235.194 215.688 226.875 207.369 226.875 196.781C226.875 186.194 235.194 177.875 245.781 177.875C256.369 177.875 264.688 186.194 264.688 196.781C264.688 207.369 256.369 215.688 245.781 215.688ZM283.594 215.688C273.006 215.688 264.688 207.369 264.688 196.781C264.688 186.194 273.006 177.875 283.594 177.875C294.181 177.875 302.5 186.194 302.5 196.781C302.5 207.369 294.181 215.688 283.594 215.688ZM56.7188 215.688C46.1313 215.688 37.8125 207.369 37.8125 196.781C37.8125 186.194 46.1313 177.875 56.7188 177.875C67.3062 177.875 75.625 186.194 75.625 196.781C75.625 207.369 67.3062 215.688 56.7188 215.688ZM170.156 253.5C159.569 253.5 151.25 245.181 151.25 234.594C151.25 224.006 159.569 215.688 170.156 215.688C180.744 215.688 189.062 224.006 189.062 234.594C189.062 245.181 180.744 253.5 170.156 253.5ZM283.594 253.5C273.006 253.5 264.688 245.181 264.688 234.594C264.688 224.006 273.006 215.688 283.594 215.688C294.181 215.688 302.5 224.006 302.5 234.594C302.5 245.181 294.181 253.5 283.594 253.5ZM245.781 253.5C235.194 253.5 226.875 245.181 226.875 234.594C226.875 224.006 235.194 215.688 245.781 215.688C256.369 215.688 264.688 224.006 264.688 234.594C264.688 245.181 256.369 253.5 245.781 253.5ZM207.969 253.5C197.381 253.5 189.062 245.181 189.062 234.594C189.062 224.006 197.381 215.688 207.969 215.688C218.556 215.688 226.875 224.006 226.875 234.594C226.875 245.181 218.556 253.5 207.969 253.5ZM132.344 253.5C121.756 253.5 113.438 245.181 113.438 234.594C113.438 224.006 121.756 215.688 132.344 215.688C142.931 215.688 151.25 224.006 151.25 234.594C151.25 245.181 142.931 253.5 132.344 253.5ZM94.5312 253.5C83.9438 253.5 75.625 245.181 75.625 234.594C75.625 224.006 83.9438 215.688 94.5312 215.688C105.119 215.688 113.438 224.006 113.438 234.594C113.438 245.181 105.119 253.5 94.5312 253.5ZM56.7188 253.5C46.1313 253.5 37.8125 245.181 37.8125 234.594C37.8125 224.006 46.1313 215.688 56.7188 215.688C67.3062 215.688 75.625 224.006 75.625 234.594C75.625 245.181 67.3062 253.5 56.7188 253.5ZM94.5312 291.312C83.9438 291.312 75.625 282.994 75.625 272.406C75.625 261.819 83.9438 253.5 94.5312 253.5C105.119 253.5 113.438 261.819 113.438 272.406C113.438 282.994 105.119 291.312 94.5312 291.312ZM56.7188 291.312C46.1313 291.312 37.8125 282.994 37.8125 272.406C37.8125 261.819 46.1313 253.5 56.7188 253.5C67.3062 253.5 75.625 261.819 75.625 272.406C75.625 282.994 67.3062 291.312 56.7188 291.312ZM94.5312 329.125C83.9438 329.125 75.625 320.806 75.625 310.219C75.625 299.631 83.9438 291.312 94.5312 291.312C105.119 291.312 113.438 299.631 113.438 310.219C113.438 320.806 105.119 329.125 94.5312 329.125ZM56.7188 329.125C46.1313 329.125 37.8125 320.806 37.8125 310.219C37.8125 299.631 46.1313 291.312 56.7188 291.312C67.3062 291.312 75.625 299.631 75.625 310.219C75.625 320.806 67.3062 329.125 56.7188 329.125ZM132.344 366.938C121.756 366.938 113.438 358.619 113.438 348.031C113.438 337.444 121.756 329.125 132.344 329.125C142.931 329.125 151.25 337.444 151.25 348.031C151.25 358.619 142.931 366.938 132.344 366.938ZM207.969 366.938C197.381 366.938 189.062 358.619 189.062 348.031C189.062 337.444 197.381 329.125 207.969 329.125C218.556 329.125 226.875 337.444 226.875 348.031C226.875 358.619 218.556 366.938 207.969 366.938ZM94.5312 366.938C83.9438 366.938 75.625 358.619 75.625 348.031C75.625 337.444 83.9438 329.125 94.5312 329.125C105.119 329.125 113.438 337.444 113.438 348.031C113.438 358.619 105.119 366.938 94.5312 366.938ZM56.7188 366.938C46.1313 366.938 37.8125 358.619 37.8125 348.031C37.8125 337.444 46.1313 329.125 56.7188 329.125C67.3062 329.125 75.625 337.444 75.625 348.031C75.625 358.619 67.3062 366.938 56.7188 366.938ZM170.156 366.938C159.569 366.938 151.25 358.619 151.25 348.031C151.25 337.444 159.569 329.125 170.156 329.125C180.744 329.125 189.062 337.444 189.062 348.031C189.062 358.619 180.744 366.938 170.156 366.938ZM94.5312 404.75C83.9438 404.75 75.625 396.431 75.625 385.844C75.625 375.256 83.9438 366.938 94.5312 366.938C105.119 366.938 113.438 375.256 113.438 385.844C113.438 396.431 105.119 404.75 94.5312 404.75ZM132.344 404.75C121.756 404.75 113.438 396.431 113.438 385.844C113.438 375.256 121.756 366.938 132.344 366.938C142.931 366.938 151.25 375.256 151.25 385.844C151.25 396.431 142.931 404.75 132.344 404.75ZM207.969 404.75C197.381 404.75 189.062 396.431 189.062 385.844C189.062 375.256 197.381 366.938 207.969 366.938C218.556 366.938 226.875 375.256 226.875 385.844C226.875 396.431 218.556 404.75 207.969 404.75ZM245.781 404.75C235.194 404.75 226.875 396.431 226.875 385.844C226.875 375.256 235.194 366.938 245.781 366.938C256.369 366.938 264.688 375.256 264.688 385.844C264.688 396.431 256.369 404.75 245.781 404.75ZM56.7188 404.75C46.1313 404.75 37.8125 396.431 37.8125 385.844C37.8125 375.256 46.1313 366.938 56.7188 366.938C67.3062 366.938 75.625 375.256 75.625 385.844C75.625 396.431 67.3062 404.75 56.7188 404.75ZM170.156 404.75C159.569 404.75 151.25 396.431 151.25 385.844C151.25 375.256 159.569 366.938 170.156 366.938C180.744 366.938 189.062 375.256 189.062 385.844C189.062 396.431 180.744 404.75 170.156 404.75ZM207.969 442.562C197.381 442.562 189.062 434.244 189.062 423.656C189.062 413.069 197.381 404.75 207.969 404.75C218.556 404.75 226.875 413.069 226.875 423.656C226.875 434.244 218.556 442.562 207.969 442.562ZM245.781 442.562C235.194 442.562 226.875 434.244 226.875 423.656C226.875 413.069 235.194 404.75 245.781 404.75C256.369 404.75 264.688 413.069 264.688 423.656C264.688 434.244 256.369 442.562 245.781 442.562ZM283.594 442.562C273.006 442.562 264.688 434.244 264.688 423.656C264.688 413.069 273.006 404.75 283.594 404.75C294.181 404.75 302.5 413.069 302.5 423.656C302.5 434.244 294.181 442.562 283.594 442.562ZM283.594 480.375C273.006 480.375 264.688 472.056 264.688 461.469C264.688 450.881 273.006 442.562 283.594 442.562C294.181 442.562 302.5 450.881 302.5 461.469C302.5 472.056 294.181 480.375 283.594 480.375ZM18.9062 480.375C8.31875 480.375 0 472.056 0 461.469C0 450.881 8.31875 442.562 18.9062 442.562C29.4937 442.562 37.8125 450.881 37.8125 461.469C37.8125 472.056 29.4937 480.375 18.9062 480.375ZM207.969 480.375C197.381 480.375 189.062 472.056 189.062 461.469C189.062 450.881 197.381 442.562 207.969 442.562C218.556 442.562 226.875 450.881 226.875 461.469C226.875 472.056 218.556 480.375 207.969 480.375ZM245.781 480.375C235.194 480.375 226.875 472.056 226.875 461.469C226.875 450.881 235.194 442.562 245.781 442.562C256.369 442.562 264.688 450.881 264.688 461.469C264.688 472.056 256.369 480.375 245.781 480.375ZM283.594 518.188C273.006 518.188 264.688 509.869 264.688 499.281C264.688 488.694 273.006 480.375 283.594 480.375C294.181 480.375 302.5 488.694 302.5 499.281C302.5 509.869 294.181 518.188 283.594 518.188ZM207.969 518.188C197.381 518.188 189.062 509.869 189.062 499.281C189.062 488.694 197.381 480.375 207.969 480.375C218.556 480.375 226.875 488.694 226.875 499.281C226.875 509.869 218.556 518.188 207.969 518.188ZM132.344 518.188C121.756 518.188 113.438 509.869 113.438 499.281C113.438 488.694 121.756 480.375 132.344 480.375C142.931 480.375 151.25 488.694 151.25 499.281C151.25 509.869 142.931 518.188 132.344 518.188ZM94.5312 518.188C83.9438 518.188 75.625 509.869 75.625 499.281C75.625 488.694 83.9438 480.375 94.5312 480.375C105.119 480.375 113.438 488.694 113.438 499.281C113.438 509.869 105.119 518.188 94.5312 518.188ZM56.7188 518.188C46.1313 518.188 37.8125 509.869 37.8125 499.281C37.8125 488.694 46.1313 480.375 56.7188 480.375C67.3062 480.375 75.625 488.694 75.625 499.281C75.625 509.869 67.3062 518.188 56.7188 518.188ZM245.781 518.188C235.194 518.188 226.875 509.869 226.875 499.281C226.875 488.694 235.194 480.375 245.781 480.375C256.369 480.375 264.688 488.694 264.688 499.281C264.688 509.869 256.369 518.188 245.781 518.188ZM170.156 518.188C159.569 518.188 151.25 509.869 151.25 499.281C151.25 488.694 159.569 480.375 170.156 480.375C180.744 480.375 189.062 488.694 189.062 499.281C189.062 509.869 180.744 518.188 170.156 518.188ZM18.9062 518.188C8.31875 518.188 0 509.869 0 499.281C0 488.694 8.31875 480.375 18.9062 480.375C29.4937 480.375 37.8125 488.694 37.8125 499.281C37.8125 509.869 29.4937 518.188 18.9062 518.188ZM207.969 556C197.381 556 189.062 547.681 189.062 537.094C189.062 526.506 197.381 518.188 207.969 518.188C218.556 518.188 226.875 526.506 226.875 537.094C226.875 547.681 218.556 556 207.969 556ZM132.344 556C121.756 556 113.438 547.681 113.438 537.094C113.438 526.506 121.756 518.188 132.344 518.188C142.931 518.188 151.25 526.506 151.25 537.094C151.25 547.681 142.931 556 132.344 556ZM94.5312 556C83.9438 556 75.625 547.681 75.625 537.094C75.625 526.506 83.9438 518.188 94.5312 518.188C105.119 518.188 113.438 526.506 113.438 537.094C113.438 547.681 105.119 556 94.5312 556ZM56.7188 556C46.1313 556 37.8125 547.681 37.8125 537.094C37.8125 526.506 46.1313 518.188 56.7188 518.188C67.3062 518.188 75.625 526.506 75.625 537.094C75.625 547.681 67.3062 556 56.7188 556ZM170.156 556C159.569 556 151.25 547.681 151.25 537.094C151.25 526.506 159.569 518.188 170.156 518.188C180.744 518.188 189.062 526.506 189.062 537.094C189.062 547.681 180.744 556 170.156 556ZM245.781 556C235.194 556 226.875 547.681 226.875 537.094C226.875 526.506 235.194 518.188 245.781 518.188C256.369 518.188 264.688 526.506 264.688 537.094C264.688 547.681 256.369 556 245.781 556Z" fill="black"/>
</svg>
