<svg width="33" height="23" viewBox="0 0 33 23" fill="none" xmlns="http://www.w3.org/2000/svg">
<path d="M11.5 22.5C17.5751 22.5 22.5 17.5751 22.5 11.5C22.5 5.42487 17.5751 0.5 11.5 0.5C5.42487 0.5 0.5 5.42487 0.5 11.5C0.5 17.5751 5.42487 22.5 11.5 22.5Z" fill="#E6E9E8" stroke="black"/>
<path d="M16.5 22.5C22.5751 22.5 27.5 17.5751 27.5 11.5C27.5 5.42487 22.5751 0.5 16.5 0.5C10.4249 0.5 5.5 5.42487 5.5 11.5C5.5 17.5751 10.4249 22.5 16.5 22.5Z" fill="#C7C7C7" stroke="black"/>
<path d="M21.5 23C27.8513 23 33 17.8513 33 11.5C33 5.14873 27.8513 0 21.5 0C15.1487 0 10 5.14873 10 11.5C10 17.8513 15.1487 23 21.5 23Z" fill="black"/>
</svg>
