<svg width="23" height="25" viewBox="0 0 23 25" fill="none" xmlns="http://www.w3.org/2000/svg">
<path d="M22.5931 12.9567C22.627 12.9229 22.661 12.889 22.6949 12.8552C22.7288 12.8214 22.7627 12.7876 22.7966 12.7199L22.8305 12.6861L22.8644 12.6184C22.8983 12.5846 22.8983 12.5507 22.8983 12.4831C22.8983 12.4493 22.9322 12.3816 22.9322 12.3139C22.9322 12.2801 22.9322 12.2124 22.9322 12.111C22.9322 12.0433 22.9322 11.9756 22.8983 11.9418C22.8983 11.8742 22.8644 11.8403 22.8644 11.8065V11.7727V11.705L22.8305 11.6373C22.7966 11.6035 22.7966 11.5697 22.7288 11.502C22.6949 11.4682 22.661 11.4344 22.6271 11.4005C22.5931 11.3667 22.5592 11.3329 22.5253 11.2991L22.4914 11.2652L18.9993 9.50609L22.4575 7.40866C22.4914 7.37483 22.5592 7.341 22.5931 7.30717C22.627 7.27334 22.661 7.23951 22.6949 7.20568C22.7288 7.17185 22.7627 7.13802 22.7966 7.07037L22.8305 7.03654L22.8644 6.96888C22.8983 6.93505 22.8983 6.86739 22.8983 6.83356C22.8983 6.79973 22.9322 6.73207 22.9322 6.69824C22.9322 6.66441 22.9322 6.59675 22.9322 6.49526C22.9322 6.42761 22.9322 6.35995 22.8983 6.32612C22.8983 6.29229 22.8644 6.22463 22.8644 6.1908V6.15697V6.12314L22.8305 6.05548C22.7966 6.02165 22.7966 5.98782 22.7288 5.92016C22.6949 5.88633 22.661 5.8525 22.6271 5.81867C22.5931 5.78484 22.5592 5.75101 22.5253 5.71719L22.4914 5.68336L11.7437 0.101489C11.7098 0.067659 11.6759 0.067659 11.6081 0.0338295C11.5403 0.0338295 11.5064 0.0338295 11.4725 0.0338295C11.4046 0.0338295 11.3368 0 11.269 0H11.2351C11.2012 0 11.1334 0 11.0995 0C11.0317 0 10.9639 0.0338295 10.8961 0.067659H10.8622H10.8283L10.7605 0.101489C10.557 0.236806 0.995946 6.05548 0.487378 6.35995C0.317855 6.46143 0.182237 6.59675 0.114428 6.73207C0.0127142 6.93505 -0.0211903 7.13802 0.0127142 7.37483V7.44249C0.0127142 7.51015 0.0466188 7.61164 0.0805233 7.6793L0.182237 7.84844L0.216142 7.88227L0.250046 7.9161C0.283951 7.94993 0.317855 7.98376 0.317855 7.98376C0.35176 8.01759 0.385664 8.05142 0.385664 8.05142L0.521282 8.11908C0.555187 8.15291 1.09766 8.42355 3.43707 9.60758L3.97955 9.87821L0.521282 12.0095C0.35176 12.111 0.216142 12.2463 0.148332 12.3816C0.0466188 12.5846 0.0127142 12.7876 0.0466188 12.9905V13.0582C0.0466188 13.1258 0.0805233 13.2273 0.114428 13.295L0.216142 13.4641L0.250046 13.498C0.283951 13.5318 0.317855 13.5656 0.35176 13.5995C0.385664 13.6333 0.419569 13.6671 0.453473 13.7009L0.521282 13.7348C0.555187 13.7686 3.97955 15.5277 3.97955 15.5277C3.97955 15.5277 0.656901 17.5575 0.521282 17.659C0.35176 17.7605 0.216142 17.8958 0.148332 18.0311C0.0466188 18.2341 0.0127142 18.4371 0.0466188 18.6401V18.7077C0.0466188 18.7754 0.0805233 18.8769 0.114428 18.9107L0.216142 19.1137L0.250046 19.1475C0.283951 19.1813 0.317855 19.2152 0.35176 19.249C0.385664 19.2828 0.419569 19.3166 0.453473 19.3166L0.555187 19.3843C0.758614 19.4858 11.0656 24.797 11.3029 24.8985C11.3368 24.9323 11.3707 24.9323 11.4385 24.9323C11.5064 24.9662 11.6081 24.9662 11.6759 25C11.7098 25 11.7437 25 11.7437 25C11.8454 25 11.9471 25 12.0149 24.9662L12.1166 24.9323C12.1505 24.9323 12.2184 24.8985 12.2862 24.8647L22.5253 18.6062C22.5592 18.5724 22.5931 18.5386 22.661 18.5047C22.6949 18.4709 22.7288 18.4371 22.7627 18.4032C22.7966 18.3694 22.8305 18.3356 22.8644 18.2679L22.8983 18.2341L22.9322 18.1664C22.9661 18.1326 22.9661 18.065 22.9661 18.0311C22.9661 17.9973 23 17.9296 23 17.862C23 17.7943 23 17.7267 23 17.659C23 17.5913 23 17.5237 22.9661 17.4899C22.9661 17.4222 22.9322 17.3884 22.9322 17.3545V17.3207V17.2869L22.8983 17.2192C22.8644 17.1854 22.8644 17.1516 22.7966 17.0839C22.7627 17.0501 22.7288 17.0162 22.6949 16.9824C22.661 16.9486 22.627 16.9147 22.5931 16.8809L22.4575 16.9486L18.9993 15.1556L22.4575 13.0582C22.4914 13.0244 22.5253 12.9905 22.5931 12.9567ZM1.53842 7.54398L0.995946 7.27334L1.50451 6.96888C3.40317 5.78484 9.94675 1.82679 11.0995 1.11637L11.269 1.01488L21.949 6.49526L11.7098 12.7537L11.5403 12.6522C10.3875 12.0771 3.53879 8.55886 1.53842 7.54398ZM21.949 17.8281L11.7098 24.0866L11.5403 23.9851C10.3875 23.41 3.57269 19.8917 1.53842 18.843L0.995946 18.5724L5.03059 16.1367L5.20011 16.2382C8.89571 18.1326 11.1673 19.3166 11.269 19.3505C11.3029 19.3505 11.3368 19.3843 11.3707 19.3843C11.4385 19.4181 11.5403 19.4181 11.6081 19.452C11.642 19.452 11.7776 19.452 11.7776 19.452C12.0149 19.452 12.354 19.249 12.354 19.249L17.9821 15.7984L21.949 17.8281ZM11.7098 18.4371L11.5403 18.3356C10.3875 17.7605 3.53879 14.2422 1.53842 13.2273L0.995946 12.9567L5.03059 10.4871L5.20011 10.5886C8.14981 12.111 11.1673 13.6671 11.269 13.7009C11.3029 13.7009 11.3368 13.7348 11.3707 13.7348C11.4385 13.7686 11.5403 13.7686 11.6081 13.8024C11.642 13.8024 11.6759 13.8024 11.7098 13.8024C11.8115 13.8024 11.9132 13.8024 12.0149 13.7686L12.0827 13.7348C12.1166 13.7348 12.1844 13.7009 12.2523 13.6671L17.9821 10.1827L21.949 12.2124L11.7098 18.4371Z" fill="black"/>
</svg>
