<svg width="64" height="64" viewBox="0 0 64 64" fill="none" xmlns="http://www.w3.org/2000/svg">
<circle cx="56" cy="8" r="8" transform="rotate(90 56 8)" fill="black"/>
<circle cx="56" cy="24" r="8" transform="rotate(90 56 24)" fill="black"/>
<circle cx="40" cy="24" r="8" transform="rotate(90 40 24)" fill="black"/>
<circle cx="56" cy="40" r="8" transform="rotate(90 56 40)" fill="black"/>
<circle cx="40" cy="40" r="8" transform="rotate(90 40 40)" fill="black"/>
<circle cx="24" cy="40" r="8" transform="rotate(90 24 40)" fill="black"/>
<circle cx="56" cy="56" r="8" transform="rotate(90 56 56)" fill="black"/>
<circle cx="40" cy="56" r="8" transform="rotate(90 40 56)" fill="black"/>
<circle cx="24" cy="56" r="8" transform="rotate(90 24 56)" fill="black"/>
<circle cx="8" cy="56" r="8" transform="rotate(90 8 56)" fill="black"/>
</svg>
