<svg width="125" height="144" viewBox="0 0 125 144" fill="none" xmlns="http://www.w3.org/2000/svg">
<path d="M60.3699 142.435L2.1201 108.805C0.808289 108.047 0 106.648 0 105.132V37.8716C0 36.3558 0.808289 34.9565 2.1201 34.1986L60.3699 0.568452C61.6817 -0.189484 63.2983 -0.189484 64.6101 0.568452L122.86 34.1986C124.172 34.9565 124.98 36.3558 124.98 37.8716V105.132C124.98 106.648 124.172 108.047 122.86 108.805L64.6101 142.435C63.2983 143.193 61.6817 143.193 60.3699 142.435ZM12.7206 102.686L60.3699 130.197C61.6817 130.955 63.2983 130.955 64.6101 130.197L112.259 102.686C113.571 101.928 114.38 100.529 114.38 99.0127V43.9934C114.38 42.4776 113.571 41.0783 112.259 40.3204L64.6101 12.8094C63.2983 12.0515 61.6817 12.0515 60.3699 12.8094L12.7206 40.3204C11.4088 41.0783 10.6005 42.4776 10.6005 43.9934V99.0127C10.6005 100.529 11.4088 101.928 12.7206 102.686Z" fill="url(#paint0_linear_1401_1101)"/>
<path d="M60.3694 22.5408L21.1476 45.1861C19.8358 45.944 19.0275 47.3433 19.0275 48.8592V91.7011C19.0275 94.7302 20.644 97.5314 23.2677 99.0446L28.0379 101.798C28.7455 102.206 29.628 101.697 29.628 100.881V54.981C29.628 53.4651 30.4363 52.0658 31.7481 51.3079L60.3694 34.7843C61.6813 34.0264 63.2978 34.0264 64.6097 34.7843L93.231 51.3079C94.5428 52.0658 95.3511 53.4651 95.3511 54.981V88.0307C95.3511 89.5466 94.5428 90.9459 93.231 91.7038L64.6097 108.227C63.2978 108.985 61.6813 108.985 60.3694 108.227L50.829 102.72C49.5172 101.962 48.7089 100.563 48.7089 99.0473V65.9976C48.7089 64.4817 49.5172 63.0824 50.829 62.3245L60.3694 56.8175C61.6813 56.0596 63.2978 56.0596 64.6097 56.8175L74.1501 62.3245C75.4619 63.0824 76.2702 64.4817 76.2702 65.9976V77.0141C76.2702 78.53 75.4619 79.9293 74.1501 80.6872L69.3799 83.4407C68.6723 83.8488 67.7898 83.34 67.7898 82.5238V75.7474V70.9692C67.7898 69.4533 66.9815 68.0541 65.6697 67.2961L63.5496 66.0718C62.8924 65.6928 62.0867 65.6928 61.4295 66.0718L58.7794 67.6009C57.7962 68.168 57.1893 69.2201 57.1893 70.3544V71.5019V94.1949C57.1893 95.7161 58.0055 97.1207 59.3253 97.8759L60.3482 98.459C61.6574 99.2063 63.266 99.2036 64.5725 98.4484L84.7506 86.7984C86.0624 86.0405 86.8707 84.6412 86.8707 83.1253V59.8678C86.8707 58.3519 86.0624 56.9527 84.7506 56.1947L64.6097 44.566C63.2978 43.808 61.6813 43.808 60.3694 44.566L40.2285 56.1947C38.9167 56.9527 38.1084 58.3519 38.1084 59.8678V105.156C38.1084 106.672 38.9167 108.071 40.2285 108.829L60.3694 120.458C61.6813 121.216 63.2978 121.216 64.6097 120.458L103.832 97.8123C105.143 97.0544 105.952 95.6551 105.952 94.1392V48.8512C105.952 47.3354 105.143 45.9361 103.832 45.1781L64.6097 22.5328C63.2978 21.7749 61.6813 21.7749 60.3694 22.5328V22.5408Z" fill="url(#paint1_linear_1401_1101)"/>
<defs>
<linearGradient id="paint0_linear_1401_1101" x1="26.6423" y1="2.98222" x2="91.6012" y2="140.752" gradientUnits="userSpaceOnUse">
<stop stop-color="#4A47D3"/>
<stop offset="1" stop-color="#6CB6AD"/>
</linearGradient>
<linearGradient id="paint1_linear_1401_1101" x1="37.5573" y1="24.0302" x2="82.441" y2="119.605" gradientUnits="userSpaceOnUse">
<stop stop-color="#4A47D3"/>
<stop offset="1" stop-color="#6CB6AD"/>
</linearGradient>
</defs>
</svg>
