<svg width="60" height="141" viewBox="0 0 60 141" xmlns="http://www.w3.org/2000/svg">
    <g fill="#000" fillRule="nonzero">
        <path d="M30.146 39.8c5.506 0 9.832-4.338 9.832-9.86 0-5.522-4.326-9.86-9.832-9.86-5.506 0-9.832 4.338-9.832 9.86 0 5.522 4.326 9.86 9.832 9.86zM10.124 19.721c5.323 0 9.543-4.054 9.818-9.312l.014-.548C19.956 4.339 15.63 0 10.124 0 4.618 0 .292 4.339.292 9.86c0 5.522 4.326 9.861 9.832 9.861z"/>
        <path d="M10.533 39.8c5.506 0 9.832-4.338 9.832-9.86 0-5.522-4.326-9.86-9.832-9.86C5.027 20.08.7 24.418.7 29.94c0 5.522 4.326 9.86 9.832 9.86zM30.464 59.88c5.506 0 9.832-4.338 9.832-9.86 0-5.522-4.326-9.86-9.832-9.86-5.506 0-9.832 4.338-9.832 9.86 0 5.522 4.326 9.86 9.832 9.86zM50.168 59.88c5.506 0 9.832-4.338 9.832-9.86 0-5.522-4.326-9.86-9.832-9.86-5.506 0-9.832 4.338-9.832 9.86 0 5.522 4.326 9.86 9.832 9.86zM10.76 59.88c5.322 0 9.542-4.054 9.818-9.312l.014-.548c0-5.522-4.326-9.86-9.832-9.86-5.506 0-9.832 4.338-9.832 9.86 0 5.522 4.326 9.86 9.832 9.86zM30.464 79.96c5.506 0 9.832-4.339 9.832-9.86 0-5.522-4.326-9.861-9.832-9.861-5.506 0-9.832 4.339-9.832 9.86 0 5.522 4.326 9.861 9.832 9.861zM50.168 79.96c5.506 0 9.832-4.339 9.832-9.86 0-5.522-4.326-9.861-9.832-9.861-5.506 0-9.832 4.339-9.832 9.86 0 5.522 4.326 9.861 9.832 9.861zM50.168 100.04c5.506 0 9.832-4.339 9.832-9.86 0-5.523-4.326-9.861-9.832-9.861-5.506 0-9.832 4.338-9.832 9.86 0 5.522 4.326 9.86 9.832 9.86zM10.76 79.96c5.322 0 9.542-4.054 9.818-9.312l.014-.548c0-5.522-4.326-9.861-9.832-9.861-5.506 0-9.832 4.339-9.832 9.86 0 5.522 4.326 9.861 9.832 9.861zM30.464 100.04c5.506 0 9.832-4.339 9.832-9.86 0-5.523-4.326-9.861-9.832-9.861-5.506 0-9.832 4.338-9.832 9.86 0 5.522 4.326 9.86 9.832 9.86zM10.76 100.04c5.322 0 9.542-4.054 9.818-9.313l.014-.548c0-5.522-4.326-9.86-9.832-9.86-5.506 0-9.832 4.338-9.832 9.86 0 5.522 4.326 9.86 9.832 9.86zM30.146 120.12c5.506 0 9.832-4.34 9.832-9.861 0-5.522-4.326-9.86-9.832-9.86-5.506 0-9.832 4.338-9.832 9.86 0 5.522 4.326 9.86 9.832 9.86z"/>
        <path d="M10.533 120.12c5.322 0 9.542-4.055 9.818-9.313l.014-.548c0-5.522-4.326-9.86-9.832-9.86-5.506 0-9.832 4.338-9.832 9.86 0 5.522 4.326 9.86 9.832 9.86zM10.124 140.2c5.506 0 9.832-4.34 9.832-9.861 0-5.522-4.326-9.861-9.832-9.861-5.506 0-9.832 4.339-9.832 9.86 0 5.522 4.326 9.861 9.832 9.861z"/>
    </g>
</svg>
