<?xml version="1.0" encoding="UTF-8"?>
<svg width="148px" height="327px" viewBox="0 0 148 327" version="1.1" xmlns="http://www.w3.org/2000/svg" xmlns:xlink="http://www.w3.org/1999/xlink">
    <title>Group 8</title>
    <g id="Welcome" stroke="none" stroke-width="1" fill="none" fill-rule="evenodd">
        <g id="Group-8" fill-rule="nonzero">
            <path d="M33.6982249,327 C51.9349112,327 67,311.934911 67,293.301775 C67,274.668639 52.3313609,260 33.6982249,260 C14.6686391,260 0,274.668639 0,293.301775 C0,311.934911 15.0650888,327 33.6982249,327 Z" id="." fill="#F000B8"></path>
            <path d="M144.5,248 C145.701947,248 146.872305,248.115827 148.000742,248.337149 L148.000614,282.662876 C146.872216,282.884182 145.701902,283 144.5,283 C134.7,283 127,275.3 127,265.5 C127,255.7 134.7,248 144.5,248 Z M144.5,178 C145.701947,178 146.872305,178.115827 148.000742,178.337149 L148.000668,246.993279 C147.834411,246.99775 147.667512,247 147.5,247 C137.7,247 130,239.3 130,229.5 C130,221.609625 134.991532,215.080577 142.051772,212.83568 C135.455938,211.947318 130.128036,207.503892 127.999693,201.438771 C126.068578,206.943603 121.501129,211.112521 115.742743,212.500744 C123.318774,214.325696 128.833364,220.965308 128.996291,229.127934 L129,229.5 L128.974541,230.472792 C128.484333,239.804777 120.973333,247 111.5,247 C101.7,247 94,239.3 94,229.5 C94,221.167614 99.566438,214.353347 107.257257,212.499256 C99.566438,210.646653 94,203.832386 94,195.5 C94,185.7 101.7,178 111.5,178 C119.206364,178 125.614155,182.761432 128.000307,189.561229 C130.385845,182.761432 136.793636,178 144.5,178 Z M40.5,142 C50.3,142 58,149.7 58,159.5 C58,169.3 50.3,177 40.5,177 C30.7,177 23,169.3 23,159.5 C23,149.7 30.7,142 40.5,142 Z M144.5,142 C145.701947,142 146.872305,142.115827 148.000742,142.337149 L148.000742,176.662851 C146.872305,176.884173 145.701947,177 144.5,177 C136.793636,177 130.385845,172.238568 127.999693,165.438771 C125.614155,172.238568 119.206364,177 111.5,177 C101.7,177 94,169.3 94,159.5 C94,149.7 101.7,142 111.5,142 C119.206364,142 125.614155,146.761432 128.000307,153.561229 C130.385845,146.761432 136.793636,142 144.5,142 Z M76.5,142 C86.1886364,142 93.8247288,149.525994 93.9970253,159.166731 L94,159.5 L94,159.5 L93.9745408,160.472793 C93.4843333,169.804778 85.9733333,177 76.5,177 C66.7,177 59,169.3 59,159.5 C59,149.7 66.7,142 76.5,142 Z M40.5,106 C50.3,106 58,113.7 58,123.5 C58,133.3 50.3,141 40.5,141 C30.7,141 23,133.3 23,123.5 C23,113.7 30.7,106 40.5,106 Z M76.5,106 C86.1886364,106 93.8247288,113.525994 93.9970253,123.166731 L94,123.5 L93.9745408,124.472793 C93.4843333,133.804778 85.9733333,141 76.5,141 C66.7,141 59,133.3 59,123.5 C59,113.7 66.7,106 76.5,106 Z M144.5,106 C145.701947,106 146.872305,106.115827 148.000742,106.337149 L148.000614,140.662876 C146.872216,140.884182 145.701902,141 144.5,141 C134.7,141 127,133.3 127,123.5 C127,113.7 134.7,106 144.5,106 Z M40.5,71 C50.3,71 58,78.7 58,88.5 C58,98.3 50.3,106 40.5,106 C30.7,106 23,98.3 23,88.5 C23,78.7 30.7,71 40.5,71 Z M144.5,71 C145.701947,71 146.872305,71.1158268 148.000742,71.337149 L148.000742,105.662851 C146.872305,105.884173 145.701947,106 144.5,106 C136.793636,106 130.385845,101.238568 127.999693,94.4387713 C125.614063,101.238637 119.206308,106 111.5,106 C101.7,106 94,98.3 94,88.5 C94,78.7 101.7,71 111.5,71 C119.206364,71 125.614155,75.7614318 128.000307,82.5612287 C130.385845,75.7614318 136.793636,71 144.5,71 Z M76.5,71 C86.1886364,71 93.8247288,78.5259943 93.9970253,88.1667308 L94,88.5 L94,88.5 L93.9745408,89.4727926 C93.4843333,98.8047777 85.9733333,106 76.5,106 C66.7,106 59,98.3 59,88.5 C59,78.7 66.7,71 76.5,71 Z M144.5,35 C145.701947,35 146.872305,35.1158268 148.000742,35.337149 L148.000614,69.6628762 C146.872216,69.8841819 145.701902,70 144.5,70 C136.793636,70 130.385845,65.2385682 127.999693,58.4387713 C125.614063,65.2386367 119.206308,70 111.5,70 C101.7,70 94,62.3 94,52.5 C94,42.7 101.7,35 111.5,35 C119.206364,35 125.614155,39.7614318 128.000307,46.5612287 C130.385845,39.7614318 136.793636,35 144.5,35 Z M76.5,35 C86.1886364,35 93.8247288,42.5259943 93.9970253,52.1667308 L94,52.5 L94,52.5 L93.9745408,53.4727926 C93.4843333,62.8047777 85.9733333,70 76.5,70 C66.7,70 59,62.3 59,52.5 C59,42.7 66.7,35 76.5,35 Z M111.5,0 C121.188636,0 128.824729,7.52599432 128.997025,17.1667308 L129,17.5 L128.974541,18.4727926 C128.484333,27.8047777 120.973333,35 111.5,35 C101.7,35 94,27.3 94,17.5 C94,7.7 101.7,0 111.5,0 Z M147.5,0 C147.66755,0 147.834486,0.00225075425 148.000781,0.00672427654 L148.000668,34.9932788 C147.834411,34.9977503 147.667512,35 147.5,35 C137.7,35 130,27.3 130,17.5 C130,7.7 137.7,0 147.5,0 Z" id="Combined-Shape" fill="#FFFFFF"></path>
        </g>
    </g>
</svg>
